<svg xmlns="http://www.w3.org/2000/svg" viewBox="0 0 217.38 70.74"><title>Asset 1</title><g id="f0171873-c4ee-4d62-8cfb-cfb4affe3969" data-name="Layer 2"><g id="a8ca662d-50b6-45af-accf-4961da412f3b" data-name="Layer 1"><path d="M6.34,29.29C12.58,17.74,23.36,5.15,36.09.94c2.62-.65,6.1-1.38,8.41.41,2.07,1.53,2.34,4.14,1.88,6.49-.62,2.78-2.52,6.31-5.71,6.76A1.92,1.92,0,0,1,39.24,14a3.32,3.32,0,0,1-.6-3.05c.53-2.21,2.57-4.55,4.93-4.86.4-.26.23-.75.12-1.09a2,2,0,0,0-1.26-1C39.88,3.71,38,5.31,36,6.66c-7.43,6-12.82,13.65-17.36,21.29-3.69,6.88-6.85,14-7.77,22-.45,5.83,1.4,11.55,6.59,14.35,5.61,3,12.88,1,18.51-.57l5.18-1.59,9.94-2.95c9.42-2.75,21.23-3.37,30.43.28,5.56,2.32,11.29,5.49,14.92,11,0,.15,0,.32-.18.29-7.88-2.15-18.15-4.28-26-.55l-.38-.09a15.62,15.62,0,0,0-10.48-6.72c-13.26-1.28-24.16,5-36.63,6.56-6.31.58-13.09.38-17.49-4.45-6.95-6.95-6.13-19.2-2.83-27.57A70,70,0,0,1,6.34,29.29Z" style="fill:#fff"/><path d="M24.64,33.43C27.94,27.38,33,20,40,17.78a6,6,0,0,1,5.31,1c3,3,1.83,8.14.82,11.66a.49.49,0,0,0,.37.46,10.09,10.09,0,0,0,6.76-3.16c4.15-4.64,8.59-10.71,15.33-10a4.36,4.36,0,0,1,3.15,2.1c1.71,3.4,0,7.15-2.3,9.75a3.28,3.28,0,0,1-3.3,1.11A2.05,2.05,0,0,1,65,29.49a5.79,5.79,0,0,1,2.83-5.84c.55-.55,2.22-.17,1.76-1.4a1.52,1.52,0,0,0-1.4-.55c-3.28,1.36-5.42,4.71-7.32,7.52a48.26,48.26,0,0,0-5.61,12c-.35,1.52-.79,3.5.1,4.91a2.66,2.66,0,0,0,2.86,1c3.25-1.28,6.1-3.89,8.58-6.58,5.68-6.81,8.69-15.24,16.29-20.78,2.36-1.63,5.7-2.88,8.53-1.38.46.18.83.78,1.41.55.46-.46.78-1.43,1.7-1.2,2.09,0,4.5-.07,6.65.14l.15.2-.61,1.46-11.8,24a1.58,1.58,0,0,0-.08.89.74.74,0,0,0,.94.21,16.1,16.1,0,0,0,4.21-4.3,28.65,28.65,0,0,0,2.71-4.49c.32-.46.69-1,1.33-1s1.49-.19,2,.27a45.83,45.83,0,0,1-3,5.73C94,45.73,89.8,51.45,83.91,52.93A3.58,3.58,0,0,1,81,52.4c-1.15-.87-1.2-2.24-1.51-3.48A.47.47,0,0,0,79,48.8c-2.51,2.26-5.1,4.52-8.63,4.08a3.88,3.88,0,0,1-2.6-2.11c-.91-1.75-.48-4-.53-6-.08-.23-.37-.14-.48-.06-3.83,3.78-8,7.18-13.06,8.14a6.74,6.74,0,0,1-6-2.09c-3.8-5-.79-11.51,1.21-16.36.08-.23,0-.54-.23-.6-1.38.11-2.7.33-4,.53l-.46.52c-3.1,5.73-6.45,11.8-12,16.06-2.3,1.66-5.72,2.79-8.42,1.26-2.8-1.93-3.05-5.38-2.69-8.56A40.48,40.48,0,0,1,24.64,33.43Zm8.79-.29c-1.62,3.27-3.27,6.57-3.34,10.44a2.23,2.23,0,0,0,1.4,1.76,2.79,2.79,0,0,0,2.24-.65c3.17-2.66,5.37-6.3,7.16-9.8.14-.34.4-.77.2-1.14a14.16,14.16,0,0,1-5.18-3.7L35.59,30c-.28.06-.4.35-.6.55Zm4.93-6.64a4.91,4.91,0,0,0,3.23,3.8c.37.12,1,.41,1.29-.05a14.67,14.67,0,0,0,1.22-3.5c.29-1.58.53-3.7-1-4.74A2.13,2.13,0,0,0,41.28,22,5,5,0,0,0,38.36,26.5ZM77.24,39.87c-.43,1.43-1.1,3-.65,4.56a1.3,1.3,0,0,0,.8.64c1.3,0,2.16-1.14,3-2.06a95.35,95.35,0,0,0,9.27-16.62c.43-1.2,1.13-2.32,1.1-3.67,0-.29-.31-.49-.54-.63-.57-.26-1.12.14-1.58.37C83.55,26.37,80.8,32,78.25,37.32Z" style="fill:#fff"/><path d="M101.78,25.14a60.57,60.57,0,0,1,3.5-6.67,3.28,3.28,0,0,1,2.24-.69l5.65.08.23.23c-1,2.27-2,4.5-3.18,6.68a2.2,2.2,0,0,1-1.55,1.2,63.8,63.8,0,0,1-6.92,0C101.52,25.72,101.72,25.4,101.78,25.14Z" style="fill:#fff"/><path d="M107.45,36.62c3.93-8.14,8.67-16,15.38-22.92C129.34,7.21,136.39,2,144.93.35c2.32-.34,4.93-.13,6.71,1.45a1.25,1.25,0,0,0,1.23.41C159-.24,167.49-1.1,173.63,2A113.2,113.2,0,0,1,184,8.06c.43.23.23.69,0,.95-2,2.17-3.61,4.4-5.37,6.67a.59.59,0,0,1-.71,0l-9-6.2c-4.21-2.86-9.05-4.85-14.54-4-.6.31-.32,1.06-.4,1.63.12,5.63-1.88,10.53-4.59,15-2.17,3.12-4.67,6.38-8.35,7.43a4,4,0,0,1-4.13-1.45c-2.69-4.08-.31-9.07,1.65-12.71A36.45,36.45,0,0,1,148,4.89c.09-.14.26-.28.15-.46-.38-.37-1-.14-1.47-.06-6.12,2.05-11,7.45-15.54,12.58-8.08,9.93-14.2,20.7-17.69,32.55-1.07,4.44-2.53,11.27,2,14.39,4,2.14,7.81-.61,10.81-3.18a32.09,32.09,0,0,0,8.87-16.05c.2-1.8.7-4.27-1-5.51-1.49-.67-2.73.56-3.74,1.59a17.93,17.93,0,0,0-3.73,9.78c-1,.86-2.28,1.4-3.37,2.23A31.24,31.24,0,0,0,117.57,58c-.2.06-.23-.17-.29-.29-.23-6.66,2.14-12.36,5.8-17.49C126,36.85,129.74,34,134.27,35c2,.53,3.29,2.63,3.66,4.49.72,6.26-1.91,11.74-4.74,16.84-4.56,7.16-11.76,14.4-20.89,13.53a10.07,10.07,0,0,1-8.24-5.85c-3.45-6.87-1.07-15.71,1.25-22.36ZM138.5,24.75a2.08,2.08,0,0,0,1.2,1.9c1.54.44,2.78-.71,3.93-1.59A26,26,0,0,0,151,9.78c0-.86.29-1.95-.19-2.7a1.43,1.43,0,0,0-1,.29,28.42,28.42,0,0,0-7.31,7.32C140.44,17.76,138.62,20.91,138.5,24.75Z" style="fill:#fff"/><path d="M144.31,44.24c3.32-4.38,7.73-9.16,13.3-9.52a4.31,4.31,0,0,1,3.5,1.79c2.37,3.51.37,8-.5,11.57a.52.52,0,0,0,.37.63,6,6,0,0,0,3.47-.5l.43-.54a133.81,133.81,0,0,1,17-32.13C186.32,9.7,192,3.67,198.52.85c1.55-.54,3.79-1.2,5.28,0,1.66,1.35,1.19,3.7.76,5.51-.18,1.61-2,1.77-3.14,2.14-.06,0-.11,0-.17-.05a18.19,18.19,0,0,1,.78-3A2.71,2.71,0,0,0,202,3.93c-.28-.52-.91-.35-1.34-.21a20,20,0,0,0-5.71,5c-6.34,7.35-10.93,15.52-15.15,23.77-1.39,2.87-2.83,5.71-4,8.69a.38.38,0,0,0,.17.4c1,0,1.55-1,2.3-1.54a101.24,101.24,0,0,0,14.3-16.77,8.18,8.18,0,0,1,3-.51l.2.06c-.06.8-.75,1.43-1.13,2.15a110.31,110.31,0,0,1-16.43,19l-4.66,3.83c-1,.86-1,2.18-1.51,3.27a35.92,35.92,0,0,0-1.92,9.21,1.6,1.6,0,0,0,.68,1.35c1.23.55,2.21-.63,3.08-1.43,6.31-7.3,9.1-16.24,16.81-22.79,2.54-2,5.87-3.71,9.14-2.21.57.21,1,.95,1.69.61.49-.34.52-1.12,1.21-1.08,2.27,0,4.68-.1,6.86.08.2.17.06.46,0,.66L208,38.63l-9.66,19.49a6.13,6.13,0,0,0-1,2.83c.15.44.61.47,1,.38A13.6,13.6,0,0,0,202.66,57c1.18-1.66,2.14-3.41,3.26-5.1a4,4,0,0,1,2.1-.07c.4.37-.12.86-.21,1.29C205,59,201,65.39,194.84,68.64c-1.44.71-3.42,1.37-5,.5-1.26-.87-1.14-2.45-1.71-3.65-.11-.18-.4-.15-.54-.06-2.56,2.29-5.33,4.86-8.91,3.87-2.24-1-2.49-3.62-2.65-5.84-.12-.08-.06-.25-.2-.34l-.29.11c-2.51,3-5.68,6.76-9.9,6.4a4.54,4.54,0,0,1-3.49-3.11c-1.48-4.69.09-9.82,1.14-14.32a.65.65,0,0,0-.51-.55l-3.54,0-.57.66c-2.6,5.1-5.46,10-10,14.29-2.36,2.09-5.26,3.83-8.5,2.87-2.7-1.16-3.4-4.09-3.39-6.84C137.38,55.72,140.5,49.85,144.31,44.24Zm.93,15.59a2.42,2.42,0,0,0,1.54,2.3,2.57,2.57,0,0,0,1.95-.34c3.31-2.46,5.28-6.24,7.07-9.68.17-.34.32-.89-.14-1.15a16.71,16.71,0,0,1-4.75-3.74.59.59,0,0,0-.69-.09,30,30,0,0,0-2.92,5.33C146.32,54.78,145.25,57.07,145.24,59.83Zm8.32-16.11a4.83,4.83,0,0,0,3.11,4c.32.12.89.27,1.12-.13,1-2.24,1.92-4.79,1.41-7.38a2.27,2.27,0,0,0-1.35-1.41,2.74,2.74,0,0,0-1.83.28A5.63,5.63,0,0,0,153.56,43.72ZM185.2,59.05c-.06.83-.27,1.86.36,2.5a1.32,1.32,0,0,0,1.32.23c1.7-.88,2.8-2.69,3.84-4.18a101.13,101.13,0,0,0,8.38-17c.09-.52.23-1.24-.25-1.58-1.41-.67-2.5.88-3.54,1.62-4.58,4.55-7,10.05-9.3,15.59Z" style="fill:#fff"/><path d="M191.89,16.24,195,12.29l.46-.4c8.84-.17,15.75-5.43,22-11.64a7.34,7.34,0,0,1-.7,2.35c-4.08,9.61-14,18-24.69,18.18l-2.52,0c-.46-.12-.15-.58,0-.81Z" style="fill:#fff"/><path d="M203,66.92A2.06,2.06,0,1,1,205.11,69,2,2,0,0,1,203,66.92Zm2.07,2.55a2.54,2.54,0,1,0-2.58-2.55A2.54,2.54,0,0,0,205.11,69.47Zm-.54-2.35h.51l.78,1.27h.49l-.83-1.29a.76.76,0,0,0,.76-.8c0-.58-.34-.83-1-.83h-1.12v2.92h.44Zm0-.37v-.91h.61c.31,0,.64.07.64.43s-.34.48-.72.48Z" style="fill:#fff"/></g></g></svg>