<svg xmlns="http://www.w3.org/2000/svg" viewBox="0 0 478.38 478.38"><defs><style>.\35 bdc3adc-06af-4624-ac9c-a81740f71de9{fill:#fff;}.\34 7842fbe-8ca3-472f-886c-ae3660284972,.\35 bdc3adc-06af-4624-ac9c-a81740f71de9{stroke:#fff;stroke-miterlimit:10;}.\34 7842fbe-8ca3-472f-886c-ae3660284972{fill:none;stroke-width:6.38px;}</style></defs><title>Asset 1</title><g id="396e9ec1-3893-402a-95dd-48b8ae94ac98" data-name="Layer 2"><g id="9f218c35-48f5-4256-808a-f225c0d11b3b" data-name="Layer 2"><path class="5bdc3adc-06af-4624-ac9c-a81740f71de9" d="M122.78,135.89a35.34,35.34,0,0,0,7.93,11.25,38.86,38.86,0,0,0,11.58,7.68,34.35,34.35,0,0,0,14,2.84,37.08,37.08,0,0,0,14.52-2.9A39.63,39.63,0,0,0,182.79,147l.44-.43H268L187,262.25l-.19-84.1-61.27.13.46,205,32.54-.07H297.18a38,38,0,0,0,24.95,9.09,35.49,35.49,0,0,0,14-2.77,36.93,36.93,0,0,0,11.56-7.71,36.14,36.14,0,0,0,7.9-11.46,34.36,34.36,0,0,0,2.87-14,33.17,33.17,0,0,0-2.87-13.74,35.45,35.45,0,0,0-7.9-11.27,39.28,39.28,0,0,0-11.56-7.7,34.37,34.37,0,0,0-14-2.87,37,37,0,0,0-14.53,2.87,39.38,39.38,0,0,0-12,7.7l-.5.5h-83.7l80.24-114.63v83H353V95.2H181.2a37.5,37.5,0,0,0-10.5-6.36,38.41,38.41,0,0,0-14.54-2.73,35.42,35.42,0,0,0-14,2.8,36.7,36.7,0,0,0-10,6.29h0l0,0c-.41.36-.81.73-1.21,1.11l-.09.09h0l-.22.2a36.45,36.45,0,0,0-7.88,11.48,34.58,34.58,0,0,0-2.83,14A33.12,33.12,0,0,0,122.78,135.89Z"/><circle class="47842fbe-8ca3-472f-886c-ae3660284972" cx="239.19" cy="239.19" r="236"/></g></g></svg>