<svg xmlns="http://www.w3.org/2000/svg" version="1.1" x="0" y="0" width="84.4" height="75.6" viewBox="0 0 84.4 75.6" xml:space="preserve"><style type="text/css">
	.st0{fill:#FFFFFF;}
	.st1{fill:#EE193A;}
	.st2{fill:#FF566C;}
	.st3{fill:#FF504F;}
	.st4{fill:#FF6414;}
	.st5{fill:#16796A;}
	.st6{fill:#FF375A;}
	.st7{fill:#57AF9E;}
	.st8{fill:#33A492;}
	.st9{fill:#8DC1A5;}
	.st10{fill:#FFBA00;}
	.st11{fill:#FF8E98;}
	.st12{fill:#00887D;}
	.st13{fill:#6EB8A1;}
	.st14{fill:#FFCE4A;}
	.st15{fill:#FFC92F;}
	.st16{fill:#FFC634;}
	.st17{fill:#FFC62F;}
	.st18{fill:#FFC64B;}
	.st19{fill:#FFBE3A;}
	.st20{fill:#FFC85F;}
	.st21{fill:#FFC32A;}
	.st22{fill:#FFC350;}
	.st23{fill:#FFD588;}
	.st24{fill:#FFC654;}
	.st25{fill:#FFC540;}
	.st26{fill:#FFCF5D;}
	.st27{fill:#FFCD5D;}
	.st28{fill:#FFC832;}
	.st29{fill:#FFCA3F;}
	.st30{fill:#FFB600;}
	.st31{fill:#CCC14F;}
	.st32{fill:#FFCE4F;}
	.st33{fill:#FFDD91;}
	.st34{fill:#008668;}
	.st35{fill:#FFCA3A;}
	.st36{fill:#FFB900;}
	.st37{fill:#009688;}
	.st38{fill:#FF5E79;}
	.st39{fill:#FF794A;}
	.st40{fill:#FC1C48;}
	.st41{fill:#009181;}
	.st42{fill:#FF8797;}
	.st43{fill:#FFC842;}
	.st44{fill:#FFCE54;}
	.st45{fill:#44352B;}
	.st46{fill:#7EC3A7;}
	.st47{fill:#51B4A3;}
	.st48{fill:#FFBB00;}
	.st49{fill:#FF9500;}
	.st50{fill:#655B42;}
	.st51{fill:#1C0D17;}
	.st52{fill:#1F0E19;}
</style><path class="st0" d="M84.4 4.5V0h-4.6c-0.1 1.2-1.1 2.1-2.3 2 -1.1-0.1-1.9-0.9-2-2H71c0 1.2-1 2.1-2.1 2.1 -1.2 0-2.1-1-2.1-2.1l0 0h-4.6c0 1.2-1 2.1-2.1 2.1 -1.2 0-2.1-1-2.1-2.1h-4.6c0 1.2-1 2.1-2.1 2.1S49 1.2 49 0c0 0 0 0 0 0h-4.7c0 1.2-1 2.1-2.1 2.1S40 1.2 40 0l0 0h-4.6c0 1.2-1 2.1-2.1 2.1s-2.1-1-2.1-2.1l0 0h-4.6c0 1.2-1 2.1-2.1 2.1 -1.2 0-2.1-1-2.1-2.1l0 0h-4.6c-0.1 1.2-1.1 2.1-2.3 2 -1.1-0.1-1.9-0.9-2-2H8.7c0 1.2-1 2.1-2.1 2.1S4.5 1.2 4.5 0H0v4.5c1.2 0 2.1 1 2.1 2.1S1.2 8.8 0 8.8v4.6c1.2 0 2.1 0.9 2.1 2.1 0 0 0 0 0 0 0 1.2-1 2.1-2.2 2.1v4.6c1.2 0 2.1 0.9 2.1 2.1 0 0 0 0 0 0 0 1.2-1 2.2-2.1 2.2 0 0 0 0 0 0v4.6c1.2 0 2.1 0.9 2.1 2.1 0 0 0 0 0 0 0 1.2-0.9 2.1-2.1 2.2 0 0 0 0 0 0V40c1.2 0 2.1 0.9 2.1 2.1 0 0 0 0 0 0 0 1.2-1 2.2-2.1 2.2 0 0 0 0 0 0v4.6c1.2 0 2.1 0.9 2.2 2.1 0 1.2-0.9 2.2-2.1 2.2 0 0 0 0 0 0v4.6c1.2 0 2.1 1 2.2 2.1 0 1.2-0.9 2.1-2.1 2.2 0 0 0 0 0 0v4.6c1.2 0 2.1 0.9 2.1 2.1 0 0 0 0 0 0C2.2 70 1.2 71 0.1 71c0 0 0 0-0.1 0v4.6h4.4c0-1.2 1-2.1 2.1-2.1 1.2 0 2.1 1 2.1 2.1h4.6c0.1-1.2 1.1-2.1 2.3-2 1.1 0.1 1.9 0.9 2 2h4.6c0-1.2 1-2.1 2.1-2.1 1.2 0 2.1 1 2.1 2.1h4.6c0-1.2 1-2.1 2.1-2.1s2.1 1 2.1 2.1H40c0-1.2 1-2.1 2.1-2.1s2.1 1 2.1 2.1h4.6c0-1.2 1-2.1 2.1-2.1s2.1 1 2.1 2.1c0 0 0 0 0 0h4.6c0-1.2 1-2.1 2.1-2.1 1.2 0 2.1 1 2.1 2.1h4.6c0-1.2 1-2.1 2.1-2.1 1.2 0 2.1 1 2.1 2.1h4.6c0.1-1.2 1.1-2.1 2.3-2 1.1 0.1 1.9 0.9 2 2h4.6V71c-1.2 0-2.1-1-2.1-2.1 0-1.2 1-2.1 2.1-2.1v-4.6c-1.2 0-2.1-1-2.1-2.1 0-1.2 1-2.1 2.1-2.1v-4.6c-1.2 0-2.1-1-2.1-2.1s1-2.1 2.1-2.1v-4.6c-1.2 0-2.1-1-2.1-2.1s1-2.1 2.1-2.1v-4.6c-1.2 0-2.1-1-2.1-2.1s1-2.1 2.1-2.1c0 0 0 0 0 0v-4.6c-1.2 0-2.1-1-2.1-2.1s1-2.1 2.1-2.1v-4.6c-1.2 0-2.1-1-2.1-2.1 0-1.2 1-2.1 2.1-2.1V8.8c-1.2 0-2.1-1-2.1-2.1S83.2 4.5 84.4 4.5"/><rect x="8.2" y="8.1" class="st0" width="67.6" height="58.4"/><path class="st1" d="M22.6 28.3c0-0.3 0-0.7 0.3-0.8 0.4 0.3 0.7 0.7 0.9 1.1 0.3 0.5 0 1.1-0.1 1.6 -0.2 0.6-0.4 1.1-0.7 1.7 -0.1 0.2-0.1 0.5-0.1 0.7s-0.3 0.8-0.5 1.2c0 0.2-0.3 0.7-0.2 0.9s0.3 0.1 0.3 0.2 -0.1 0.4-0.1 0.5c-0.1 0.4 0 0.3 0.2 0.7s0.1 0.5 0.2 0.8c0.1-0.4 0.4-0.8 0.5-1.2 0.1-0.3 0.1-0.7 0.1-1 0.1-0.3 0.2-0.6 0.4-0.9 0.1-0.2 0.7-0.4 0.8-0.6s-0.3-0.4-0.4-0.7c0-0.4 0.2-0.7 0.3-1.1 0.2-0.4 0.3-0.8 0.3-1.2 0-0.6 0.3-0.8 0.5-1.3 0.1-1.1-0.2-2.3-0.9-3.2 -0.3-0.4-0.7-0.8-1.2-0.7 -0.6 0.2-1.1 0.6-1.5 1.2 -0.2 0.3-0.5 0.5-0.8 0.7 -0.3-0.4-0.7-0.7-1.1-0.8 -0.4-0.1-0.8-0.2-1.3-0.3 -1.1-0.3-2.2-0.4-3.4-0.4 0.3 0.3 1 0.1 1.4 0.2s0.7 0.2 1.1 0.3c-0.6 0.1-1.2-0.2-1.9-0.2 -0.6 0-1.1 0.1-1.6 0.3 0.3 0.1 0.9 0.1 1.2 0.2 -0.4 0.1-0.8 0.3-1.2 0.5 0.1 0.2 0.1 0.3-0.1 0.4 0.1 0 0.1 0.1 0.4 0.1 -0.4 0.2-1.2 0.3-1.5 0.7 0.3 0 0.5 0.1 0.7 0.2l-0.4 0.5c0.7 0 1.5-0.7 2.1-0.7 0.6 0 1.2 0 1.8 0 0.7 0 1.4 0.2 2.1 0.4 0.6 0.2 0.6 0.7 0.5 1.3 0 0.1-0.1 0.1-0.1 0.2 0.2 0.1 0.4 0.2 0.6 0.3 -0.1 0.3-0.4 0.2-0.5 0.4 0.5 0.2 0.8 0.4 1.2 0s0.1-0.8 0.3-1.1c0.1-0.1 0.3-0.2 0.3-0.4s-0.3-0.3-0.3-0.5C21.8 27.7 22.4 28.1 22.6 28.3"/><path class="st1" d="M18.4 51.4c-0.5-0.4-0.9-0.9-1-1.5 -0.1-0.6-0.2-1.2-0.2-1.8 0.1-0.6 0.3-1.2 0.6-1.7 0.3-0.6 0.4-1.2 0.7-1.7 0.5 0.2 0.9-1.1 1-1.5s0.1-0.8 0.1-1.2 0.4-0.8 0.4-1.1c-0.1 0.6 0.6 1.2 0.4 1.8 -0.1 0.3-0.4 0.5-0.5 0.8 -0.2 0.3-0.3 0.7-0.4 1 -0.3 0.8-0.6 1.6-0.8 2.4 -0.3 0.6-0.4 1.2-0.4 1.9 0 0.4 0.1 0.9 0.3 1.3 0.1 0.3 0.2 0.4 0 0.7C18.1 50.5 18.3 51.4 18.4 51.4"/><path class="st1" d="M21.1 41.1c0.1-0.4 0.3-0.8 0.5-1.1 0.1-0.4 0.2-0.8 0.2-1.2 0-0.4 0.3-0.6 0.2-1 0-0.2-0.1-0.3-0.2-0.4 -0.1-0.2-0.1-0.4-0.1-0.6 -0.3 0.3-0.4 0.7-0.4 1.2 0 0.4-0.1 0.8-0.3 1.2 -0.2 0.3-0.3 0.7-0.3 1.1 0.1 0.4 0.2 0.7 0.3 1.1"/><path class="st1" d="M13.8 28.2c-0.3 0.1-0.6 0.3-0.8 0.5 0-0.1 0-0.3 0.1-0.4 -0.4 0.4-0.9 0.5-1.2 1.1 -0.3 0.4-0.4 1-0.4 1.5 0 0.2 0 0.4 0.1 0.6 0.1 0.3 0.1 0.7 0.1 1 0.1 0.6 0.2 1.1 0.4 1.7 0-0.2 0-0.5 0-0.7 0 0.1 0.3 0.3 0.3 0.3 0.4-0.7-0.5-1.6-0.2-2.3 0.3 0.6 0.5-0.8 0.6-1C12.6 31 13 31.3 13 31.8c0 0.4 0 0.8 0 1.2 0.1-0.4 0.2-0.8 0.2-1.3 0.1 0.3 0.2 0.7 0.3 1.1 0.1-0.3 0.1-0.5 0-0.8 -0.1-0.2-0.1-0.5-0.1-0.7 0-0.5-0.5-0.8-0.6-1.2 0.3-0.2 0.4-0.6 0.4-0.9S13.7 28.5 13.8 28.2"/><path class="st1" d="M13.1 38c0.1 0.4 0.2 0.8 0.4 1.2 0.1 0.4 0.2 0.8 0.2 1.2 0.1-0.5 0.1-1.1 0-1.6 -0.1-0.4-0.6-0.8-0.6-1.2C13.1 37.6 13.1 37.8 13.1 38"/><path class="st1" d="M13.9 41c-0.1 0.7 0.1 1.5 0.5 2.1 0.2 0.2 0.3 0.5 0.4 0.7 0.1 0.3 0.2 0.7 0.3 1 0.4-0.6-0.2-1.5-0.4-2C14.2 42.2 14 41.6 13.9 41"/><path class="st1" d="M24.4 34.9c-0.1 0.7-0.3 1.4-0.6 2.1 0.1-0.4 0.3-0.9 0.5-1.3 0.2-0.3 0.3-0.6 0.3-0.9"/><path class="st2" d="M18.2 51.3c0 0.2 0.3 0.1 0.5 0.2s0.2 0.3 0.3 0.4c0-0.3 0.2-0.3 0.3-0.5S19.1 51 19 50.8c-0.2-0.4-0.4-1.2 0-1.6 0.2-0.2 0.5-0.2 0.7-0.4 0.2-0.3 0.3-0.6 0.3-0.9 0.2-0.7 0.6-1.4 0.9-2 0.2-0.5 0.4-1 0.5-1.5 -0.3 0.2-0.6 0.2-0.7-0.1s0-1.4-0.2-1.7c-0.3 0.5-0.5 0.8-0.8 1.3s-0.5 1.7-0.8 2.3 -0.3 1.1-0.6 1.7c-0.2 0.5-0.3 1.1-0.1 1.7 0.1 0.2 0.5 0.9 0.4 1.1s-0.2 0-0.4 0.2c-0.1 0.2-0.1 0.4 0 0.6"/><path class="st2" d="M21.6 43.8c0.1-0.3 0.4-0.6 0.5-0.9 -0.2 0.1-0.4 0.3-0.6 0.4 0.4-0.5 0.6-1.1 0.8-1.7 -0.3 0.4-0.6 0.7-1 1 0.3-0.5 0.6-0.9 1-1.4 -0.1 0.1-0.2 0.1-0.3 0.1 0.2-0.3 0.6-0.6 0.7-0.9 -0.2 0-0.4 0.2-0.5 0.3 0.1-0.3 0.4-1 0.2-1.3s0.1-1.5 0-1.7S22 38.2 22 38.1c-0.2 0.7-0.4 1.5-0.6 2.2 -0.3 0.3-0.4 0.8-0.4 1.2 0.1 0.4 0.4 0.8 0.4 1.2s-0.2 0.8 0 1.3"/><path class="st2" d="M23.1 39.4c0.1-0.2 0.6-0.7 0.5-0.9 -0.1 0.2-0.3 0.2-0.5 0.2 0-0.3 0.4-0.5 0.5-0.7 0.2-0.3 0.3-0.7 0.3-1 -0.2 0.1-0.4 0.3-0.6 0.5 0.2-1 0.8-1.4 1.2-2.3 0.3-0.6 0.5-1.3 0.6-1.9 0.1-0.6 0.4-1.1 0.4-1.6s0.1-0.9 0.2-1.4 0-0.9 0-1.4c-0.2 0.2-0.2 0.5-0.3 0.8 -0.1 0.3-0.2 0.6-0.4 0.9C25 30.8 25 31 25 31.3c-0.1 0.3-0.2 0.6-0.3 0.9s0 0.3 0.1 0.6c0.1 0.3 0.1 0.6-0.1 0.8 -0.2 0.2-0.4 0.2-0.6 0.5 -0.2 0.3-0.2 0.5-0.3 0.8 -0.2 0.7-0.4 1.4-0.7 2.1 -0.1 0.2-0.1 0.5-0.1 0.7 0 0.1 0.2 0.4 0.3 0.6 0 0.3 0 0.5-0.1 0.8"/><path class="st2" d="M15 35.5c-0.6-0.6-0.6-1.2-0.9-1.9 -0.2-0.6-0.1-1.6-0.7-1.9 -0.1 0.4 0.1 0.7 0.1 1.1 -0.1-0.3-0.2-0.7-0.4-0.9 -0.1 0.3-0.1 0.7-0.1 1.1 0-0.8-0.1-1.6-0.4-2.4 -0.1 0.2-0.2 0.7-0.2 0.9 -0.3 0.1-0.4 0-0.4 0.3 0 0.3 0 0.5 0.1 0.8 0.1 0.3 0.4 0.9 0.2 1.3 -0.1-0.1-0.2-0.2-0.4-0.3 0 0.2 0 0.4 0 0.5 -0.2-0.6-0.3-1.2-0.4-1.7 -0.1-0.6-0.1-1.1-0.1-1.7 0.1-0.5 0.3-1 0.7-1.4 0.5-0.3 1-0.6 1.5-0.9 0.1-0.1 0.3-0.2 0.3-0.4 -0.2-0.1-0.4-0.2-0.7-0.2 0.2-0.3 1.2-0.4 1.4-0.6 -0.1 0-0.2-0.1-0.3-0.1 0.1-0.1 0.1-0.2 0.2-0.2s-0.1-0.1-0.1-0.1c0.4-0.2 0.9-0.2 1.2-0.5 -0.3-0.2-0.8 0-1.2-0.2 1.2-0.3 2.4-0.3 3.6-0.1 -0.5-0.2-1-0.3-1.5-0.5 -0.3 0-0.6 0-0.9-0.1 -0.5-0.1-0.9 0-1.2 0.4 -0.2 0.2-0.1 0.3-0.4 0.5s-0.5 0-0.6 0.3 0.1 0.5-0.1 0.7 -0.4 0.3-0.6 0.5c-0.4 0.4-0.8 0.8-1.2 1.2 -0.3 0.4-0.5 0.9-0.6 1.3 -0.1 0.2-0.1 0.5-0.2 0.7 -0.1 0.3 0 0.6-0.1 0.9s-0.2 0.4-0.1 0.7 0.2 0.6 0.4 1c0.3 0.7 0.5 1.4 0.7 2.1 0.2 0.6 0.4 1.2 0.6 1.8l0.1-0.1c0.1 0.7 0.3 1.3 0.4 1.9 0.2 0.7 0.3 1.4 0.4 2.1 0.1 0.4 0.2 0.8 0.4 1.2 0.2-0.7 0.2-1.4 0.2-2.2 -0.1-0.4-0.2-0.2-0.2-0.7 -0.1-0.8-0.6-1.3-0.6-2.2 0.1 0.5 0.4 0.7 0.6 1.1s0 1 0.1 1.4c0.3-0.5 1.1-0.3 1.2-1 0-0.2 0-0.4-0.1-0.7 0-0.3-0.1-0.5-0.3-0.8 -0.3-0.5-0.9-0.5-0.7-1.2s1 0 1.3-0.4C15.3 35.9 15.1 35.5 15 35.5"/><path class="st2" d="M17.8 51c-0.1-0.1-0.3-0.1-0.4 0 -0.1-0.1-0.1-0.4-0.3-0.4s-0.4 0.2-0.5 0.2c-0.5 0.2-1.1 0.2-1.7 0.2 0-0.9-0.3-1.6-0.3-2.5s-0.1-1.6-0.1-2.4c-0.1-0.7-0.2-1.5-0.4-2.2 -0.3-0.6-0.4-1.2-0.4-1.8 0.1-0.3 0.2-0.7 0.3-1 0.1-0.3 0.1-0.7 0-1 0.3 0.2 0 0.7 0 1.1 -0.1 0.5-0.1 1 0.1 1.5 0.5 0.7 0.9 1.5 1 2.3 0.4-1-0.5-1.8-0.8-2.8 -0.2-0.4-0.4-0.9-0.4-1.5 0-0.3-0.3-0.6 0-0.8s0.8-0.4 1-0.6c0.2 0.3 0.2 0.3 0.1 0.7 -0.1 0.2-0.1 0.5 0 0.8 0.3 0.8 0.7 0.5 1.3 0.6 0.3 0.3 0.5 0.6 0.5 1 0 0.5-0.3 1-0.3 1.4s-0.1 0.7 0.3 0.9 0.9-0.2 1.3-0.1c0 0.5 0.2 0.8 0 1.3 -0.3 0.6-0.5 1.3-0.7 2C17.2 48.9 17.3 50 17.8 51"/><path class="st2" d="M22 43.1c0.1-0.3 0.4-0.5 0.5-0.7 0.1-0.2 0.2-0.5 0.2-0.7 0.1-0.4 0.6-1.1 0.5-1.5 -0.4 0.1-0.8-0.1-0.9-0.5 0 0.4-0.1 0.7-0.2 1.1 0.2-0.1 0.2-0.1 0.5-0.2 -0.2 0.3-0.3 0.5-0.6 0.8 0.1 0 0.2 0 0.2 0 -0.3 0.4-0.6 0.8-0.9 1.2 0.3-0.2 0.5-0.4 0.8-0.7 -0.1 0.2-0.3 0.5-0.4 0.7 -0.1 0.2-0.1 0.4-0.2 0.6C21.7 43.2 21.9 43.1 22 43.1 22 43.1 22 43.1 22 43.1"/><path class="st2" d="M23.1 39.3c0.2-0.2 0.4-0.5 0.5-0.8 -0.2 0.1-0.3 0.1-0.5 0.1 0.2-0.3 0.3-0.5 0.5-0.7 0.2-0.3 0.3-0.6 0.3-1 -0.2 0.1-0.4 0.2-0.6 0.4 0.2-0.5 0.5-1.1 0.8-1.6 0.2-0.5 0.4-0.9 0.7-1.4 -0.1 0.9-0.4 1.8-0.7 2.7 -0.1 0.4-0.2 0.9-0.3 1.3 -0.1 0.2-0.1 0.5-0.2 0.7 -0.1 0.2-0.3 0.3-0.4 0.5"/><path class="st3" d="M20.1 29.5c-0.3 0.1-0.3-0.5-0.7-0.5 0.1 0.2-0.2 0.2-0.2 0.3s0 0.2 0.2 0.4c0.3 0.3 0.5 0.6 0.5 1 0 0.2 0 0.3 0.1 0.5 0.2 0.1 0.3 0.1 0.5 0.1 0.2-0.1 0.5-0.5 0.7-0.7 -0.2-0.2-0.9-0.2-0.9-0.5s0.4 0 0.1-0.4c-0.1-0.1-0.3-0.2-0.5-0.2"/><path class="st3" d="M23.5 28.5c0.1 0.7 0.2 1.3 0.2 2C23.7 29.9 24.4 28.7 23.5 28.5"/><path class="st3" d="M22.5 28.3c-0.2-0.1-0.4-0.2-0.6-0.2 -0.1 0.3 0.3 0.3 0.3 0.5s-0.2 0.2-0.3 0.3 0 0.2 0 0.3c-0.1 0.4-0.4 0.8-0.5 1.2 0.1-0.3 0.5-0.6 0.6-0.9C22.3 29.2 22.4 28.8 22.5 28.3"/><path class="st4" d="M21.3 37.8c0 0.6-0.1 1.1-0.4 1.6 -0.2 0.5-0.2 1 0 1.5 0.2 0.5 0.3 0.9 0.6 1.3 0.2 0.6-0.1 1 0 1.6 0.1 0 0.1 0.1 0.2-0.1 0 0.4-0.1 0.7-0.5 0.7s-0.5-0.4-0.6-0.8c0-0.4-0.1-0.7 0-1.1 -0.1-0.3-0.2-0.6-0.4-0.9 -0.3-0.8 0.2-1.2 0.5-1.9s0.4-1.3 0.7-1.9l0 0"/><path class="st4" d="M22.1 35.6c0.1 0.6-0.4 1-0.3 1.6 0.1 0.3 0.3 0.4 0.4 0.6 0.1 0.3 0.2 0.7 0.1 1 0 0.5-0.1 1 0.4 1.4s1-0.4 0.6-0.7c-0.5 0.2-0.3-0.9-0.3-1.1s-0.2-0.4-0.2-0.6c0-0.3 0-0.5 0-0.8 0-0.5-0.4-0.8-0.4-1.2s0.3-0.9-0.5-1c0.2 0.3 0.2 0.8 0 1.1 0 0 0.1 0.1 0.1 0.1"/><path class="st5" d="M29.8 34.7c-2-0.3-1.7 2-1 3 1 1.6 2.7 2.2 4 3.3 0.2 0.2 0.5 0.4 0.7 0.7 -0.4 0-0.9 0-1.3 0 -0.3-0.1-0.6-0.2-0.9-0.2 -0.9-0.1-1.5-0.8-2.3-1.3 0.1 0 0.3 0 0.4 0 -0.1-0.4-0.9-0.9-1.1-1.2 0.2 0.1 0.4 0.2 0.6 0.3 -0.2-0.6-0.7-1.1-0.9-1.7 -0.3-0.6-0.4-1.3-0.4-2 0-0.5-0.1-1.4 0.4-1.6C28.7 33.8 29.3 34.7 29.8 34.7"/><path class="st6" d="M32.7 26.4c0 0-3.3 1.6-4.6-1.2 -0.1-0.3 0-0.7 0.1-1 0.3-1.1 1-2.1 1.9-2.9 0 0-2.7-1.5-0.5-4.9s4.2-2 5.8-1.6l1.4-1.1 0.3-0.1c0 0 0.1-0.2 0.5-0.1l0.5 0.5 0.1 0.3 2.7 1.5c0.6 0.6 1.1 1.2 1.5 1.9 0.6 0.1 1.3 0.4 1.8 0.8 0.4 0.2 0.7 0.2 1.1 0.2 1 0.4 1.9 1 2.6 1.9 0.1 0.3 0 0.6-0.3 0.9s-1.9 1.4-1.9 1.4 -0.1 0.1 0.2 0.2c1.1 0.4 2.1 1.2 2.6 2.2 0 0 1 1.1 0.6 1.6s-1.1 1.5-5.6 1.2c0 0-0.2 0 0 0.2s1.2 1.3-0.1 2.3l-1.1 0.9c-0.4 0.2-0.8 0.2-1.2 0.3 -0.5 0-1.5 0.5-2.4-0.1 -1.6-1.2-1.9-3.4-0.7-5 0 0 1.2-0.6 1.5 1.1 0 0-0.2 0.2 0.2 0.6 0.3 0.3 0.4 0.6 0.3 1 0 0 0.2 0.8 0.8 0.4 0 0-1.5-2.7-1-3.2s0.1-1.1 2.6-1.1l1.9 0.4 0.1-0.2c0 0-0.6 0-0.9-0.9 0 0-2-0.6-2.2-1.1s-0.5-0.8 0.3-1.4c0.6-0.5 1.3-0.9 2-1.2 0 0 0.5-0.2-0.2-0.6s-0.7-0.5-1.2-0.5 0-0.2-0.5 0.2 -1.9-0.2-2-0.4 -0.8-0.5 0.3-1.7c-0.1-0.7-0.4-1.4-1-1.8 -1-1-0.9-0.9-0.9-0.9h-0.6L37 15.8c0 0-0.5 0.2 0 0.8s1.1 1.2 0 1.8 -2-0.9-2-0.9 -0.2-1.3-2-1 -2 3.2-2 3.3c1.1 0 2.1 0.4 2.9 1.1 0 0 0.5 0.3-0.7 1 -1 0.7-1.8 1.7-2.3 2.9 0 0.1-0.1 0.2 0.1 0.2 1-0.5 2-1 3.1-1.4 0.4 0.1 1.5-0.1 1 1.2C34.5 25.5 33.7 26.1 32.7 26.4"/><path class="st7" d="M36 25.4c0 0-3.4-1.8-2.2-6.8 0 0 0-0.3 0.8-0.2 0 0-0.1-0.6 0.7-0.6 1.3-0.1 2.7 0.1 3.8 0.7 2 1 3.2 5.1 2.7 6.1S39.6 27.7 36 25.4"/><path class="st8" d="M36.1 25.8c0 0-3.2 8.5-2.6 11h0.1c-0.2 1.5-0.4 3-0.4 4.4C32.7 41 33.6 41.5 33 41c-1.7-1.1-5.4-4-4.6-5.9 0 0 1.6-2.8 4.8 3.6v0.4c0 0-0.5-0.1-0.2 0.8s-0.2 0.1-0.5 0.4l-0.1 0.1"/><path class="st9" d="M36.8 23.6c-0.2 0-0.3-0.2-0.5-0.3 -0.2-0.1-0.5-0.1-0.8-0.2 -0.3-0.1-0.2-0.2-0.4-0.4 -0.1-0.2-0.3-0.4-0.5-0.5 -0.2-0.2-0.4-0.5-0.5-0.7 -0.1-0.4 0.1-0.3 0.3-0.6s0.3-0.8 0.9-0.9c0 0.7 0.2 1.4 0.5 2 0.1 0.3 0 0.7 0.2 1s0.3 0.1 0.4 0.2 0.1 0.3 0.2 0.5"/><path class="st9" d="M39.2 18.7c-0.4-0.3-0.9-0.5-1.4-0.6 -0.5 0-0.9 0.4-1.5 0.4s-0.8-0.6-1.3-0.4c-0.2 0.1-0.3 0.4-0.5 0.5s-0.5 0-0.7 0.1c0 0.1 0.1 0.4 0.2 0.4s0.2-0.1 0.4-0.2c0.2 0 0.5 0 0.7 0.1 0.2 0.1 0.1 0.3 0.3 0.4 0.4 0.1 0.9-0.2 1.3 0 0.3 0.1 0.8 0.3 0.9 0.7h0.1v-0.1c0.4-0.2 1-0.3 1.5-0.2 0.2 0.1 0.5 0.3 0.7 0.5 0.2 0.1 0.4 0.2 0.7 0.3 0.2 0.5 0.5 0.9 0.7 1.3 0 0.1 0.2 0.2 0.1 0.4 0 0.1-0.1 0.1-0.2 0.2 -0.1 0.2-0.2 0.4-0.3 0.6 -0.2 0.5 0.1 1.1 0.6 1.3 0 0 0 0 0 0 0.3 0.2 0.3 0.2 0.2 0.5s-0.2 0.5-0.4 0.6c-0.3 0-0.6 0.1-0.8 0.2 -0.3 0.1-0.3 0.3-0.5 0.5s-0.4 0.5-0.5 0.2 0.3-0.5 0.4-0.6"/><path class="st0" d="M14.1 33c0 0-0.3-1.2-0.1-1.5s1.2 3.6 1 3.9S14.1 33 14.1 33"/><path class="st10" d="M59 18.8l-1.5-0.4c0 0-0.2 0.5-2.1-0.5 -0.4-0.5-0.9-0.7-1.5-0.8 0 0-0.3-0.3 0.1-0.5l0.1-0.5c0.1 0 0.2 0 0.3 0 0 0 2.4-1 5.1 1.6 0 0 0.8-0.7 0.9-0.9s-0.7-0.1-1.7-0.8c0 0-1.5-0.1-2-2.2 0 0 1 0.9 1.3 0.8 0 0 0.3-0.2-0.1-0.4s0.5-0.1 0.5-0.1v-0.2c0 0 2.1 0.5 2.2 0.9 0-0.4-0.1-0.9-0.1-1.3l0.2-0.1v-2.4l1.1 2.1c0.2 0.2 0.4 0.5 0.4 0.8 0.1 0.5 0.1 0.7 0.1 0.7s0.6-0.4 0.8-0.3c0.1 0.1 0.2 0 0.3-0.1 0 0 0-3.3 0.9-4.1 0 0 0.3 0 0.3-0.2s0.6-0.2 0.6-0.2 -0.5 0.7-0.4 1.1 0.4 3.4 0.4 3.4l0.5 0.4c0 0 3.5-2.8 5.8-2.5 0 0 1.3-0.1-4.7 3.1 0.2 0.5 0.3 1 0.3 1.6 0 0.5 1.7-1.3 5.1-1.5 0 0 1.8-0.5 0 0.5s-4.4 2.3-5.3 2.7c0 0 0.4 1.2 0.1 1.5s4.3-0.2 5.3 0.1l0.9 0.2c0 0.3-0.2 0.6-0.5 0.7l-0.2 0.2 -0.3 0.1c-0.4 0.1-0.8 0.1-1.1-0.1l-1.1 0.1c-0.3 0-0.5 0-0.7 0.1 -0.8 0.1-1.7 0-2.5-0.1 -0.1 0.3-0.3 0.6-0.5 0.9 0.1 0.2 0.2 0.4 0.3 0.6l4.3 2.2c0 0 0.4 0.2 0.5 0.4s0.4 0.2-0.2 0.3S71 26.2 71 26.3s0.1 0.6-0.6 0.3 -5-2.5-5-2.5 -0.2 0-0.2 0.2 -0.4 0.6-0.4 0.6 -0.5-0.1-0.3 0.3 2.1 3.9 2.5 4 0.6 1.1 0 0.8 -0.3 0.4-0.3 0.4v0.4l-0.5-0.2c0 0 0 0.4-0.2 0.2s-2.2-1.1-3.3-5.6h-0.4c0 0-2.6 7.6-3.3 7.9s0.5-5.1 0.6-5.5c0.2-1 0.7-1.8 1.3-2.6l-0.6-0.4c0 0-5 2.6-6.4 4s0.1-0.5 0.1-0.5c1.2-2 2.9-3.6 5-4.7 0 0-0.7-0.9-0.7-1.2 -0.3 0.1-0.6 0.2-0.9 0.3 -0.2 0-0.4 0.1-0.6 0.3L55.6 23c-0.8 0.1-1.6 0.4-2.4 0.8 -0.1 0.2 0.2-1.5 3.2-2.2 0.6-0.1 1.2 0 1.8 0.1C58.2 20.6 58.5 19.7 59 18.8"/><path class="st11" d="M48.8 29.3c0 0-2.4-0.2-2.7 0.3s-0.6 0.6-0.6 0.6c-0.9 0.5-1.3 1.5-1 2.5 0.5 1.6 2 4.2 3.5 4.7s1 0.8 3.6 0.4c0 0 0.1-0.5 0.4-0.4 0.5 0.1 1.1-0.2 1.3-0.7 0.1 0 0.2 0 0.4 0 0.3 0.1 0.6 0 0.9-0.1 0.1-0.1 0.9 0.4 0.9 1.9s2.3 1.9 2.3 1.9 0.7 0.6 2.5-0.3c0.5-1 0.2-2.2-0.7-2.8 0 0 0.1-1 0.5-1.3 0.6-0.6 0.9-1.5 0.7-2.3 -0.3-1.3-0.6-2.6-0.6-2.6s-0.2-0.8-0.7-0.9 -1-0.1-1.6-1.5c-0.2-0.4-0.6-0.7-1.1-0.7 0 0-0.1 0.7-0.6 0.7s-0.5-0.3-0.5-1 0.1-1.3-0.9-2 -1.3-0.8-2.1-0.2c-0.5 0.3-1.1 0.6-1.5 1 -0.6 0.4-1 1-1.3 1.6l-0.4 1L48.8 29.3z"/><path class="st12" d="M54.7 36.7c-0.7 1.7-0.9 3.6-0.5 5.4 0.2 0.6 0.2 1.3 0.1 2l-0.2 1.1h-0.2c0-0.5-0.2-0.9-0.5-1.2 -0.2-0.2-0.5-0.4-0.7-0.7l-1.3-0.1c0 0-0.2 0.1-0.5-0.3s-0.8-0.4-0.9 0c-0.4 1.2-0.5 2.4-0.2 3.6 0.7 1.5 1.9 2.8 3.4 3.5 0 0 0.5 0.5 0.8 0.7s0.4 0.1 0.4 0.1l-0.1 0.5c-0.4 0.4-1 0.4-1.4 0 0 0-0.1-0.1-0.1-0.2C52 50.2 51 52.2 51 52.2s-1.8 6.1-1.8 7.4 0.2 1 0.2 1l1.4-0.1 1.1-1.6c0.2 0.5 0.4 1.1 0.7 1.5 0.9 0.1 1.9 0.1 2.8 0.1l0.2-0.3h0.3L56 60h0.6l0.2-0.2h0.6 0.4c1-0.7 1.7-1.7 2-2.8 0 0 0.3 1.2 0.6 1.3 0 0 0 1.3 0.5 1.5 0.3 0.1 0.6 0.1 0.8-0.2 0 0 0.3 0.4 0.5 0.1 0.4 0.1 0.8 0.1 1.1 0 0.3-0.1 0.6-0.4 0.7-0.7 -0.1-0.8-0.3-1.6-0.6-2.3 -0.4-1.8-0.5-3.6-0.4-5.4 0 0-0.2-1.1-2-2.2 -0.9-0.7-2.2-0.5-2.9 0.4l-1 1.7 -0.3-1.5c0.8-0.8 1.6-1.7 2.3-2.7 0.3-0.6 0.7-1.2 1.3-1.6 0.4-0.3 0.7-0.8-0.4-1.5 -0.2-0.1-0.4-0.3-0.5-0.6 0 0-2.7-0.2-3 0.3 0 0-0.3 0.2-0.1-0.3l-0.4-0.3c0 0-0.3 0.2-0.3-0.8v-1c-0.2 0-0.4-0.2-0.4-0.4 -0.1-0.4-0.5-1.8 0-2.2"/><path class="st13" d="M57.6 59.4c0.6-1 1.1-2 1.5-3.1 0.1-0.7 0.2-2.5 0.2-2.5s0-2.9 0.3-2.4 0.4 7.1 1.3 7.6c0.4 0.2 0.9 0.4 1.4 0.4 0.2-0.1 0.3-0.2 0.3-0.4 0-0.2 0-0.4 0.2-0.5 0 0 0.2-0.4-0.1-0.5 -0.2-0.1-0.4-0.1-0.6 0 0 0-0.3-0.3 0.1-0.3 0.2 0 0.4-0.2 0.5-0.4 0 0-0.5-5.6-0.1-6.3 0 0-1.2-2.8-3.3-1.8s-2.5 4.8-2.5 4.8L56.3 55c-0.3 0.7-0.6 1.4-1 2 -0.5 0.7-0.7 1.6-0.7 2.4 0.1 1 0.9 0.5 0.9 0.5l0.2-0.3h0.6C56.3 59.6 57.4 59.6 57.6 59.4"/><path class="st5" d="M52.7 51.4c0 0 0.7 4.4-0.5 5.9 0 0-0.2 0.5 0.1 0.5s0.4-0.5 0.4-0.5 0.5 1.9 1 1.6 0.4-0.3 0.5-0.2 0.3 0.3 0.3 0.3 -0.1 0.8 0.2 1c0.2 0.1 0.5 0.2 0.7 0.3 0 0-2.2 0.3-2.7 0 -0.3-0.4-0.5-0.9-0.5-1.4 0 0-0.2-0.4-0.3-0.2s-1.1 1.5-1.1 1.5l-1.3 0.1c0 0 0.9-8.6 2.8-9.3C52.3 51 52.7 51.1 52.7 51.4"/><path class="st12" d="M55.7 46.8c0 0 0.9-1.6 2.3-1.5 0 0-0.7 1.5-1.1 1.5 0 0-0.5 1.4-1.1 1.5 0.1 0.2 0.2 0.4 0.3 0.6 0.1 0.4 0.1 0.9-0.1 1.3l0.4 0.6c-0.8 1.5-1.1 3.3-0.8 5 -0.5 0.8-0.9 1.7-1.3 2.6 0.1 0.3-0.6-4.7-0.2-5.9s0.6-1.8 0.6-1.8 -0.5-0.1-0.6-0.3c-0.4 0-0.8-0.2-1-0.6 -0.4-0.6-3.7-1.5-3.2-5.6 0 0 0.3-2 1-0.6 0.6 0 1.1 0 1.7 0.1 0 0.1 1.2 0.7 1.2 1.7S55.4 47.1 55.7 46.8"/><path class="st14" d="M64.7 54.6c0 0 0.2-0.6 0.8 0.2 0 0-0.6 0.3-0.7 0.1S64.7 54.6 64.7 54.6"/><path class="st15" d="M50.5 42.1c0.1 0.2 0.3 0.4 0.6 0.5 0.4 0.1 0.4 0.3 0.4 0.3s0.5-0.8-0.3-1S50.5 42.1 50.5 42.1"/><path class="st16" d="M52.5 41c0 0-0.2 0.4 0 0.7s0.7 0 0.7 0c0.1 0 0.2-0.1 0.4-0.1 -0.1-0.1-0.2-0.2-0.2-0.4 -0.1-0.3-0.3-0.4-0.6-0.3C52.6 40.9 52.6 40.9 52.5 41"/><path class="st17" d="M54.1 42.4c-0.2-0.1-0.4-0.2-0.6-0.1 -0.3 0.1-0.1 0.8 0.2 0.8s0.6-0.1 0.6-0.2L54.1 42.4"/><path class="st15" d="M53.9 39c0 0-0.4-0.8-0.7-0.8s-0.5 0.1-0.3 0.5c0.1 0.3 0.3 0.5 0.6 0.6 0 0 0.3 0.1 0.4 0C53.9 39.3 53.9 39.1 53.9 39"/><path class="st18" d="M49.1 47.5c0 0 0.5-0.7 1 0s-0.3 0.9-0.3 1.1 -0.2 0.1-0.2 0.1c0-0.1 0-0.3 0.1-0.4 0.1-0.1 0-0.4-0.2-0.4S49 47.9 49.1 47.5"/><path class="st19" d="M49.9 49.2c0.3-0.1 0.7 0 0.8 0.4 0 0 0 0 0 0 0.2 0.6 0.1 0.7 0.1 0.7s-0.1 0.1-0.2 0 0-0.2-0.2-0.3 -0.5-0.2-0.6-0.3C49.8 49.5 49.8 49.3 49.9 49.2"/><path class="st20" d="M52 50.7c0 0 0 0.2-0.3-0.2s-0.5-0.1-0.5-0.1 -0.3-0.1-0.2-0.7c0 0 0.8-0.2 0.9 0 0.1 0.1 0.1 0.3 0 0.5C52.1 50.3 52.1 50.6 52 50.7"/><path class="st21" d="M52.8 50.8c0.2-0.2 0.5-0.2 0.7 0 0 0 0 0 0 0 0.3 0.4 0.4 0.3 0.4 0.3 -0.2 0.2-0.4 0.2-0.6 0.2C52.9 51.2 52.7 51.1 52.8 50.8"/><path class="st22" d="M51.6 51.1c0 0-1-0.6-1.5-0.2s-0.3 0.6-0.3 0.6 0.1 0.5 0.7 0.4c0 0 0.3 0.1 0.3 0.2C51.2 51.8 51.4 51.5 51.6 51.1"/><path class="st23" d="M50.6 52.9c-0.4-0.1-0.7-0.2-1.1-0.3 0-0.1-0.4-0.2-0.6 0s-0.6 0.5-0.2 1c0.3 0.4 0.6 0.7 1.1 0.8 0.1 0 0.3 0 0.4-0.1S50.7 53 50.6 52.9"/><path class="st24" d="M49.6 56l-0.5-0.1c-0.2 0-1-0.3-0.7 0.5s0.8 0.7 0.8 0.7 0.4-0.1 0.4-0.3S49.8 56.3 49.6 56"/><path class="st25" d="M57 49.9l0.1-0.2c0 0 0.4 0 0.4 0 0 0.1 0.1 0.2 0.2 0.3 0.1 0.1-0.2 0.4-0.2 0.4S57 50.6 57 49.9"/><path class="st26" d="M58.5 48.4c0 0-0.1 0.4 0.5 0.4s0.7 0 0.6-0.2 -0.2-0.7-0.5-0.6S58.7 47.8 58.5 48.4"/><path class="st27" d="M60.1 47.5c0 0-0.2 0.4 0.4 0.6s0.6 0.3 0.6 0.3 0.2 0.2 0.2-0.1 0.2-0.4-0.3-0.7S60.2 47.2 60.1 47.5"/><path class="st28" d="M61.8 49c0 0 0 0.4 0.1 0.5 0.1 0.1 0.3 0.1 0.5 0.2 0.1 0 0.2 0 0-0.4S62 48.8 61.8 49"/><path class="st29" d="M64.4 57.3c-0.1 0.2 0 0.4 0.2 0.6 0.2 0.1 0.5 0.2 0.7 0.3 0 0 0.3 0.1 0-0.3S64.7 57 64.4 57.3"/><path class="st29" d="M64.1 51.7c0 0-0.2 0.1-0.2 0.2s0.4 0.2 0.5 0S64.2 51.6 64.1 51.7"/><path class="st24" d="M48 58.3c0.2-0.1 0.2-0.3 0.4-0.4 0.2-0.1 0.4-0.1 0.6-0.1 0.2 0 0.3 0.2 0.3 0.3 0 0 0 0 0 0 0 0.1-0.1 0.2-0.1 0.3 0 0.1 0 0.2 0 0.3 -0.2 0-0.4 0-0.6 0 -0.2 0-0.4 0-0.6-0.2C48 58.5 48 58.4 48 58.3"/><path class="st30" d="M67.9 38.3c0 0-2.1 0.2-2.6 1.3 0 0-0.2 0.4 0.2 0.4s-1.4 1-1 3 0.8 2.1 0.8 2.1c0.7 0.9 1.8 1.3 2.9 1.1 1.3-0.1 2.3-1.1 2.3-2.4 0.4-0.9 0.5-1.9 0.4-2.9 -0.3-0.6-0.5-1.2-0.8-1.8 -0.1-0.3-0.3-0.5-0.6-0.6 0.1-0.2 0.3-0.4 0.5-0.5 0.7 0 1.3 0 2 0.2 0 0 0.8 0.2 0.3 2.3 -0.4 1.3-0.6 2.6-0.7 4 0 0.1 0.1 1-0.2 1.3s1.3 0.1 1.3 0.1 1.2-5.4 0.6-7.9c-0.6-1-1.7-1.5-2.9-1.4l-1 0.3c0 0-0.1-0.3 0.7-0.7 0.6-0.2 1.2 0 1.7 0.3 0 0 0.7 0.4 1 0.2 0.2-0.1 0.2-0.3 0.1-0.4 0 0 0-0.1-0.1-0.1l0.1-0.6c0 0-1.6-1.4-3-0.8 0 0-0.8 0.1-0.2-0.2s0.8-0.7 3-0.2c0 0 0.7 0 0.2-0.8s-1.8-0.7-1.8-0.7c-0.9 0.1-1.7 0.5-2.4 1.1 0 0-0.6-1.8-0.8-2.3s-2.7-0.5-3-0.7S64 31.1 64 31.1c-0.3 0.1-0.7 0.1-1 0.1 -0.3-0.1 0.7 0.8 2 0.5 0 0 1.4 0.1 1.4 0.5 -1.3 0-2.5 0.1-3.7 0.4C62.1 33 62 33 62.3 33.2s-1 0.4-1 0.8 3.2-1.5 6.2-0.3c0 0 0.5 0.3 0.2 0.6s-0.5-0.4-0.5-0.4 -1.2-0.3-1.6 0c-1.1 0.5-2.1 1.2-3 2.1 -1.4 1.4-1.6 4.5-1.5 5.2 0.1 0.6 0.2 1.1 0.4 1.6 0 0 0.5 0.1 0.2 0.7s1.7 3.4 1.7 3.4 0.1-0.1 0.3 0.1c0.1 0.1 0.3 0.2 0.5 0.3l0.6 0.7 0.5 0.4 0.1-0.2 0.2-0.1c-0.1-0.2-0.2-0.5-0.2-0.8 0-0.2 0-0.4-0.1-0.7 0.2 0.2 0.4 0.5 0.6 0.7 0.2 0.2 0-0.2 0-0.5s0.2-0.1 0.2-0.1v-0.2c0 0 0.4-0.1 0.2-0.3 -1.4-1.6-2.4-3.5-2.9-5.6 -0.2-0.4-0.2-0.9-0.2-1.3 0.1-0.4 0.2-0.8 0.2-1.2 0.5-1.6 2-2.6 3.6-2.5C66.8 35.7 68.3 37.1 67.9 38.3"/><path class="st30" d="M70.5 44.5c-0.3 0.9-0.6 1.7-1.1 2.5 -0.4 0.3-0.6 0-0.6 0 0.4 0.5 0.7 1 0.9 1.5 0.1 0.7 0.1 1.4 0 2.2 -0.1 0.2-0.3 0.3-0.5 0.3l-0.1 0.3c0 0-0.7 0.5-1 0.5l-0.1 0.2c0 0-2 0.7-2.1-1.8 0.2-0.5 0.2-1 0.2-1.5 -0.1-0.8 0-1.6 0.3-2.3 0.4-0.4 1.7 0.1 2.1 0S70.4 45.2 70.5 44.5"/><path class="st30" d="M67 46.4c0.4 0.2 0.8 0.3 1.3 0.3 0.3 0 0.7 0.1 1 0.1l0.7-1.2C69.2 46.5 68.1 46.7 67 46.4"/><path class="st0" d="M68.7 49.9c0 0-1 1-1.1 0.9 -0.1-0.1-0.2-0.1-0.3-0.1l-0.1 0.5C67.9 51.1 68.5 50.6 68.7 49.9"/><path class="st0" d="M67.5 46.7c0.1 0.3 0.2 0.6 0.1 0.9 -0.1 0.4-0.3-0.9-0.2-0.9C67.4 46.7 67.5 46.7 67.5 46.7"/><path d="M63.4 43.2c-0.1-0.1-0.2-0.3-0.2-0.4 -0.1-0.1-0.1-0.2-0.2-0.3 -0.1-0.2-0.2-0.5-0.3-0.8v-0.1c-0.1-0.2-0.1-0.4-0.1-0.7 0 0 0-0.1 0-0.2 0-0.2 0-0.4 0.1-0.6l0.2 0.2 0 0c0.1 0.3 0.2 0.5 0.2 0.8 0 0.2 0.1 0.3 0.1 0.5l0.1 0.3 0.1 0.3c0 0.1 0 0.1 0.1 0.2 0.1 0.2 0.1 0.5 0 0.7L63.4 43.2zM62.9 41.1c0 0.2 0 0.3 0.1 0.5v0.1c0 0.2 0.1 0.5 0.2 0.7l0-0.3 -0.1-0.3C63 41.5 63 41.4 62.9 41.1L62.9 41.1z"/><path class="st31" d="M67.7 44.2c0.1 0 0.2 0 0.2-0.1s0-0.1 0.1-0.1c0.1-0.1 0.2-0.2 0.3-0.2 0.1 0.1 0.1 0.3 0.1 0.4 0 0.1 0 0.3 0 0.5 -0.1 0.2-0.4 0.5-0.3 0.8s0.5-0.5 0.6-0.6c0.2-0.3 0.1-0.4 0.2-0.8 0-0.3 0.2-0.7 0.6-0.8 0.2-0.1 0.6 0 0.8-0.1s0.1-0.2 0.1-0.4c0-0.2 0-0.4 0.1-0.6 0.2-0.3 0.2-0.7 0.1-1.1 -0.1-0.4-0.4-0.9-0.7-1.2 -0.2-0.3-0.5-0.6-0.9-0.7 -0.4-0.1-0.7-0.1-1.1 0 -0.2 0-1.1 0.1-1 0.3 0.3 0 0.7-0.2 0.9 0.1 0.2 0.4 0.2 0.8-0.1 1.1 -0.2 0.3-0.4 0.5-0.6 0.7 -0.1 0.1-0.2 0.2-0.3 0.3s-0.3 0.2-0.4 0.3c-0.6 0.6-0.7 1.5-0.2 2.1 0.2 0.3 0.5 0.4 0.9 0.3C67.4 44.5 67.6 44.4 67.7 44.2"/><path class="st32" d="M68.4 40.7c-0.2 0.2-0.4 0.3-0.5 0.6 0 0.2 0 0.4 0 0.6 0 0.3 0 0.7 0 1 -0.3 0-0.4-0.7-0.7-0.9 -0.1 0.2 0 0.4-0.1 0.6s-0.2 0.3-0.1 0.6c0.1 0.2 0.2 0.4 0.4 0.6 0.2 0.2 0.4 0 0.6-0.1 0.1-0.2 0.1-0.3 0.3-0.3s0.2 0 0.3-0.1 0-0.4 0.2-0.5c0.1-0.1 0.2-0.1 0.3 0 0.1-0.1 0.1-0.5 0-0.6 0-0.2-0.1-0.4-0.1-0.6C68.9 41.2 68.7 40.5 68.4 40.7"/><path class="st33" d="M68.3 39.4c0 0.4 0.4 0.2 0.6 0.3 0.3 0.1 0.6 0.3 0.7 0.6 0.2 0.3 0.3 0.8 0.2 1.2 0 0.2-0.1 0.5-0.1 0.7 0 0.1-0.1 0.2-0.1 0.3 0.1-0.2 0.3-0.3 0.4-0.4 0 0.1 0.1 0.2 0.2 0.1 0.3-0.7-0.1-1.4-0.5-2s-0.6-1-1.3-0.8L68.3 39.4c0 0 0 0.1 0 0.1"/><path class="st34" d="M70.2 43.4c-0.3 0.2-0.1 0.7-0.3 0.9s-0.3 0-0.4 0.1 -0.2 0.3-0.3 0.4c-0.2 0.2-0.3 0.4-0.4 0.6 -0.1 0.3-0.4 0.5-0.7 0.6 -0.2 0.1-0.4 0.1-0.6 0 -0.2 0-0.4 0-0.6-0.1 -0.4-0.1-0.8-0.3-1.1-0.6 0.4 0.5 1.1 0.8 1.8 0.8 0.4 0 0.7 0 1.1 0 0.2 0 0.4-0.2 0.6-0.2 0.1 0 0.3-0.1 0.4-0.2 0.2-0.2 0.4-0.5 0.5-0.8 0.1-0.3 0.2-0.6 0.3-0.8 0.2-0.5 0.4-1.1 0.5-1.6 0-0.2 0.1-0.4 0.1-0.6 -0.2 0-0.1 0.3-0.2 0.4 -0.1 0.2-0.1 0.4-0.2 0.6 0 0.3-0.2 0.6-0.5 0.8"/><path class="st30" d="M65.6 34.7c-0.2 0-0.7 0.3-0.9 0.5 -0.2 0.1-0.4 0.3-0.6 0.4 -0.1 0.1-0.2 0.2-0.3 0.3s-0.2 0.4-0.4 0.4c-0.2 0-0.3-0.1-0.4-0.2C62.9 36 63 36 63.1 35.9c0.2-0.2 0.5-0.3 0.8-0.5 0.2-0.1 0.4-0.3 0.6-0.5s0.5-0.2 0.5-0.4c0-0.1 0-0.1 0-0.2 -0.5-0.2-1.3 0.6-1.6 0.9 -0.6 0.4-1 0.8-1.4 1.4 -0.4 0.6-0.7 1.3-0.8 2 0 0.8-0.1 1.6-0.1 2.4 0 0.4 0.1 0.8 0.4 1.2 0.2 0.2 0.3 0.4 0.3 0.6 0.1 0.3 0.1 0.6 0.2 0.8 0.2 0.3 0.3 0.6 0.5 0.9 0.2 0.5 0.5 0.9 0.8 1.3 0.3 0.3 0.5 0.6 0.7 1 0.1-0.2 0.2-0.2 0.2-0.4 0.2 0.2 0.3 0.5 0.5 0.7 0-0.2 0.1-0.5 0.2-0.6s0.4 0.1 0.5 0.1c0.2-0.5-0.1-0.8-0.4-1.1 -0.3-0.2-0.6-0.6-0.7-0.9 -0.1-0.3-0.3-0.7-0.3-1.1 -0.1-0.3-0.3-0.7-0.4-1 -0.3-0.7-0.5-1.5-0.7-2.2 0-0.7 0.1-1.4 0.3-2.1 0.1-0.4 0.3-0.8 0.5-1.2 0.1-0.2 0.2-0.3 0.3-0.4l0.4-0.3c0.4-0.3 1-0.4 1.3-0.8C65.8 35.4 66.1 34.8 65.6 34.7"/><path class="st35" d="M68.7 49.6c0-0.2 0.1-0.3 0.2-0.5S69 49 69 48.8c0-0.1 0.1-0.3 0.1-0.4 -0.1-0.2-0.1-0.3-0.3-0.4 -0.3-0.1-0.2 0.3-0.2 0.4s0.2 0.4 0.1 0.6 -0.4 0.4-0.2 0.8C68.5 49.8 68.6 49.8 68.7 49.6 68.7 49.6 68.7 49.6 68.7 49.6"/><path class="st36" d="M67.8 50.5c0-0.2 0-0.4 0-0.5 -0.1 0-0.2 0-0.3 0 0 0-0.1 0.1-0.1 0.1s-0.1 0-0.2 0S67.1 50 67 50.1c0 0.1 0 0.2 0 0.3C67.1 50.6 67.6 50.7 67.8 50.5"/><path class="st37" d="M37.1 27.2c-0.1 0.3-0.2 0.5-0.3 0.7 -0.2-0.2-0.2-0.7-0.3-1 -0.5-0.2-0.5 0.3-0.5 0.7s0 0.8-0.1 1.2c-0.1 0.9 0.2 1.8 0.8 2.5 0.3 0.3 0.5 0.4 0.5 0.9 0 0.2 0 0.3 0 0.5 -0.1 0.2-0.2 0.2-0.3 0.3 -0.1 0.1-0.2 0.3-0.1 0.5 0 0.3 0.1 0.3 0.3 0.3 0.4 0 0.8-0.1 1.2-0.3 0.3-0.1 0.7-0.4 0.9 0 0.1 0.3 0.1 0.6 0.1 0.9 0 0.2 0 0.4 0 0.6 0 0.5-0.1 1.1-0.3 1.6 -0.1 0.6-0.3 1.2-0.5 1.8 -0.1 0.4-0.2 0.8-0.4 1.2 -0.2 0.4-0.6 0.7-0.9 1.1 -0.3 0.4-0.5 0.8-0.7 1.3 -0.5 1.3-0.7 2.6-0.8 4 0 0.3-0.2 0.9 0.3 0.9 0.2 0 0.5-0.3 0.4 0s-0.2 0.4-0.3 0.5c-0.2 0.5-0.3 1-0.3 1.5 0 0.6 0 1.3 0 1.9 -0.1 1.2-0.2 2.5-0.1 3.7 0 0.3 0.1 0.6 0.3 0.8 0.1 0.1 0.2 0.1 0.3 0.2 0.1 0.1 0.2 0.1 0.4 0.1 0.1 0.2 0.2 0.5 0.2 0.7 0 0.3 0.1 0.6 0.3 0.8 0.2 0.2 0.2 0.6 0 0.8 -0.3 0.6-0.8 1.1-1.4 1.4 -0.2 0.2-0.4 0.3-0.7 0.4 -0.2 0-0.5 0-0.6 0.2 -0.1 0.2-0.1 0.5 0 0.8l0 0c-0.5 0-1.1 0.1-1.6 0 0-0.2 0-0.4-0.1-0.6 0-0.2-0.1-0.4-0.1-0.6 -0.1-0.5-0.5-0.7-0.8-1 -0.5-0.7-0.8-1.5-1-2.3 -0.1-0.3-0.2-0.7-0.2-1 0-0.2 0-0.4 0-0.6s-0.1-0.3-0.2-0.5c0-0.4-0.1-0.8-0.1-1.3 -0.1-0.3-0.2-0.6-0.3-0.8 -0.3-0.6-0.2-1.2-0.3-1.8 -0.1-0.4-0.2-0.7-0.3-1.1 -0.1-0.3-0.2-0.7-0.4-1 -0.3-0.7-0.9-1.3-1.6-1.6 -0.8-0.3-1.5 0.6-1.7 1.2 -0.1 0.2-0.2 0.4-0.3 0.6 -0.1 0.2-0.3 0.5-0.3 0.7 0 0.2 0.2 0.4 0.2 0.6 0.1 0.3 0.1 0.6 0 0.9 -0.1 0.5-0.2 1-0.2 1.4s-0.1 0.7-0.2 1.1c0 0.6-0.1 1.3-0.2 1.9 0 0.4 0 1-0.4 1.2 -0.1 0.4 0 1-0.1 1.4 0 0.3-0.4 0.9-0.2 1.2 0.2 0 0.4-0.3 0.6-0.3 0 0.2 0.1 0.4 0.1 0.6 0 0.2 0.2 0.7 0 0.8 -0.5 0.1-1 0-1.5-0.2 -0.1-0.1-0.1-0.3-0.4-0.2s0 0.2-0.4 0.2c-0.1 0-0.2 0-0.3 0s0 0.2-0.1 0.2 -0.3-0.2-0.4-0.2 -0.3 0.1-0.4-0.1 0.1-0.2 0.1-0.3 -0.2-0.2-0.3-0.2 -0.1 0.1-0.2-0.1 -0.1-0.2-0.2-0.2 -0.3-0.2-0.2-0.4c0 0 0.2 0 0.2 0s0-0.2 0-0.2 0.1-0.5 0.4-0.5 0.3 0.3 0.2 0.5 -0.4 0.3-0.3 0.5 0.4 0.2 0.3-0.1c0.2 0 0.3 0.6 0.5 0.2 0.1-0.2-0.2-0.6-0.2-0.8 -0.2-0.6-0.2-1.3-0.1-1.9 0-0.6 0-1.2 0.1-1.8 0.1-0.4 0.2-0.8 0.3-1.1 0.2-0.8 0.2-1.6 0.4-2.4s0.4-1.5 0.6-2.2c0.2-0.7 0.4-1.5 0.8-2.1 0.2-0.4 0.4-0.9 0.7-1.3 0.3-0.3 0.6-0.5 1-0.7 0.5-0.3 1-0.4 1.5-0.4 0.8-0.1 1.5 0.3 2 0.9 0.2 0.3 0.4 0.7 0.5 1 0.3 0.4 0.6 0.7 0.9 1.2 0.3 0.4 0.8 0.7 1.3 0.8 0.2 0.1 0.5 0.1 0.7 0.2 0.3 0.1 0.6 0.3 0.9 0.1 0.3-0.2 0.5-0.4 0.6-0.7 0-0.3 0-0.6 0-0.9 0.1-0.2 0-0.5-0.2-0.7 -0.2-0.2-0.5-0.5-0.5-0.7s0.1-0.6 0.2-0.9c0.2-0.7-0.1-1.4-0.8-1.8 -0.3-0.3-0.7-0.5-1.1-0.8 -1-0.3-1.9-0.9-2.7-1.5 -0.6-0.7-1.2-1.5-1.5-2.3 -0.3-0.9-0.3-1.9 0-2.8 0.1-0.5 0.2-1 0.2-1.6 0.7-0.1 0.3 0.3 0.2 0.7s0.1 0.4 0.1 0.5 -0.1 0.4-0.1 0.7c-0.2 1.2 0.8 2.6 1.4 3.6 -0.8 0.1-0.4-0.1-0.6-0.2 0.2 0.5 1.1 0.5 1.1 1.2 -0.2 0-0.2 0.1-0.4 0.1 0.3 0.4 1.1 0.6 1.5 0.8 0.6 0.4 1.2 0.6 1.9 0.8 0.4 0.1 0.8 0.2 1-0.1s-0.1-0.8-0.1-1.1c0-0.8 0-1.6 0.2-2.5 0.2-0.4 0.3-0.8 0.3-1.2 0-0.2-0.2-0.3-0.3-0.5 0-0.2 0-0.4 0-0.6 0.1-0.7 0.2-1.4 0.4-2.1 0.2-0.7 0.2-1.5 0.4-2.2 0.2-0.7 0.3-1.3 0.4-2 0.2-0.7 0.5-1.3 0.7-1.9s0.7-1.2 0.7-1.8c0.4 0 0.9 0.2 1.2 0.5C37.5 26.6 37.2 26.9 37.1 27.2"/><path class="st5" d="M23.1 50.2v0.2c-0.1 0.3-0.3 0.6-0.5 0.8 -0.2 0.3-0.1 0.7-0.1 1 -0.1 0.8-0.3 1.7-0.5 2.5 -0.1 0.5-0.2 1-0.3 1.5 0 0.5 0 0.9 0.1 1.4 0 0.2 0.1 0.4 0.1 0.6 0.1 0.2 0.3 0.3 0.3 0.5s0 0.3 0.1 0.5c0.1 0.2 0.3 0.2 0.4 0.2 0.4 0 0.6-0.1 0.9 0.2s0.7 0.6 0.9 0.2c0.1-0.2 0.1-0.7-0.2-0.7s-0.3 0.1-0.4 0 0-1 0-1.2c0-0.3 0.1-0.6 0.2-0.9 0.2-0.3 0.2-0.6 0.3-0.9 0-0.3 0-0.6-0.1-0.9 0-0.2 0-0.4 0.1-0.6 0-0.3 0-0.6 0-0.9 -0.1 0.2-0.2 0.5-0.2 0.7 -0.2-0.5-0.2-1 0-1.4 0.1-0.6 0.1-1.2 0.3-1.8 0.2-0.7 0.4-1.4 0.6-2.1 0.1-0.3 0.2-0.6 0.3-0.8 0.2-0.3 0.3-0.6 0.3-0.9l0 0c-0.1 0.4-0.3 0.7-0.5 1 -0.2 0.4-0.3 0.9-0.5 1.4 -0.2 0.7-0.3 1.5-0.4 2.2 -0.1 0.9-0.5 1.8-0.6 2.7 0 0.1 0 0.2-0.1 0.3 -0.1-0.3-0.2-0.7-0.2-1.1 0-0.5 0.1-1 0.2-1.5 -0.1 0.4-0.2 0.8-0.3 1.2 0 0.2-0.1 0.5-0.2 0.7 0 0.2-0.1 0.4-0.1 0.6 0 0.2 0 0.6-0.2 0.8 -0.1-0.9 0-1.8 0.3-2.7 -0.1 0.1-0.2 0.5-0.4 0.5s-0.1-0.8-0.1-1c0.1-0.5 0.3-1 0.4-1.4C23.1 50.8 23.1 50.5 23.1 50.2"/><path class="st30" d="M40.1 32.2c0.2 0.3-0.1 0.7 0 1 0.1 0.4 0.3 0.7 0.6 1 0.5-0.1 0.6-1.1 0.9-1.4 0.7-0.7 0.8 0.4 0.7 0.9 0 0.2-0.2 0.8 0 1s0.9-0.3 1.1-0.3c0.7-0.1 1.4 0 2 0.2 0.5 0.3 0.8 1 1.2 1.5s0.8 0.7 1.1 1.1c0.8 1.1 1.3 2.3 1.4 3.7 0 0.5 0.2 0.9 0.4 1.3 0.2 0.2 0.4 0.3 0.6 0.5s0.1 0.3-0.1 0.6c-0.4-0.2-0.4 1-0.4 1.2 0 0.2 0 0.4 0 0.7 0 0.2 0.2 0.3 0.2 0.6h-0.1c-0.2 0.4-0.2 0.9-0.3 1.3 -0.2 0.4-0.3 0.9-0.4 1.3 0 0.6 0 1.3 0 1.9 0 0.7-0.1 1.5-0.1 2.2 0 0.3 0 0.7 0 1s-0.2 0.7-0.2 1 0 0.9-0.1 1.3c0 0.5 0 1 0 1.6 0 0.2 0 0.4 0 0.6 -0.1 0.2-0.2 0.3-0.2 0.5s0.2 0.4 0.2 0.6c-0.2 0-0.2 0.1-0.4 0.2 -0.2 0-0.4 0-0.6 0 -0.1-0.3-0.3-0.6-0.4-0.9s-0.1-0.7-0.2-1c-0.1-0.7-0.2-1.5-0.2-2.2 0-0.7 0.3-1.2 0.3-1.9s0-1.5 0-2.3c0-0.5 0-1 0-1.5 0-0.7 0.3-1.3 0.3-2.1 0-0.3 0-0.6 0.1-0.9 0.2-0.3 0.3-0.6 0.4-1 0.1-0.5 0-1.1-0.1-1.6 -0.1-0.4-0.1-0.9-0.2-1.3s-0.3-0.7-0.5-1.1c-0.1-0.8-0.3-1.7-0.5-2.5 -0.5-1.1-0.6-2.4-1.8-2.9 -0.5-0.2-1.1-0.3-1.7-0.2 -0.5 0-0.9 0.4-1.1 0.8 -0.4 0.9-0.9 1.8-1.5 2.6 -0.4 0.5-0.6 1.1-0.8 1.8 -0.2 0.3-0.3 0.7-0.5 1 0 0.3 0 0.6 0 0.9 0.1 0.6 0.1 1.2 0 1.8 -0.1 1.1-0.5 2.2-0.7 3.2 -0.1 0.5-0.2 1-0.4 1.5 -0.2 0.6-0.2 1.2-0.2 1.8 0 0.6-0.1 1.2-0.2 1.9 -0.1 0.3-0.1 0.6-0.1 0.9 0 0.3 0.2 0.4 0.3 0.7s0 0.6 0 0.9c0.1 0.3 0.3 0.6 0.5 0.8 0.1 0.2 0.4 0.4 0.6 0.7s0 0.4-0.1 0.6c-0.1 0.2-0.2 0.3-0.3 0.5 -0.2-0.1-0.5-0.1-0.8 0 0-0.3 0.3-0.5 0.2-0.8s-0.3-0.4-0.3-0.6c-0.2-0.5 0-1-0.5-1.4S36 54.9 36 54.3s0-1.3 0-2c0-1.2 0.2-2.4 0.2-3.6 0-0.5 0.2-1 0.4-1.4 0.1-0.2 0.3-0.5 0.1-0.7s-0.5 0-0.7-0.2S36 45.5 36 45.2c0.1-0.8 0.3-1.5 0.5-2.3 0.2-0.8 0.5-1.6 1-2.3 0.2-0.3 0.5-0.5 0.7-0.8 0.2-0.3 0.3-0.7 0.3-1 0.1-0.3 0.2-0.6 0.4-0.9 0.1-0.3 0.1-0.5 0.2-0.8 0.1-0.7 0.4-1.3 0.5-1.9 0.1-0.6 0.1-1.1 0-1.7 -0.1-0.3-0.3-0.5-0.7-0.5 -0.4 0-0.7 0.3-1 0.4s-1 0.1-0.7-0.3 1-0.5 0.5-1.1c-0.1-0.2-0.2-0.4-0.3-0.6 -0.2-0.4-0.6-0.6-0.8-1 -0.2-0.5-0.4-1-0.4-1.5 0-0.4-0.1-1.2 0.2-1.5 0.2 0.2 0.2 0.3 0.3 0.5s0.2 0.2 0.3 0.4c0.1 0.5 0.1 0.9 0.1 1.4 0.1 1 0.9 1.5 1.4 2.1 0.3 0.3 0.4 0.4 0.8 0.3S39.8 31.8 40.1 32.2"/><path class="st38" d="M34.8 60.8c0.5-0.3 1.7 0 2.3 0 0.9 0 1.7-0.1 2.6-0.2 1-0.1 1.9 0.2 2.8 0.1 0-0.1 0-0.1 0-0.2 0.2 0 0.9 0.1 1 0s0.1-0.6 0.1-0.8 0-0.6 0-0.9 0.2-0.5 0.2-0.8 -0.2-0.9-0.2-1.4c0-0.3 0.1-0.5 0.1-0.8 -0.1-0.4-0.1-0.8-0.2-1.2 0-0.5 0-1.1 0-1.6 -0.1-0.8 0-1.7 0.2-2.5 0.2-0.8 0.2-1.6 0.1-2.4 0-1.5 0.2-2.9 0.2-4.3 0.2-0.8 0.2-1.6 0-2.4 -0.1-0.2-0.3-0.3-0.3-0.6s0.1-0.4-0.1-0.7c-0.2-0.5-0.7-0.7-1.2-0.5 0 0-0.1 0-0.1 0.1 -0.4 0.4-0.7 0.9-0.8 1.5 -0.2 0.7-0.4 1.3-0.5 2 -0.1 0.7-0.2 1.5-0.2 2.2 0 0.6 0 1.2 0.1 1.8 0 0.3 0.2 0.6 0.2 0.9 0 0.3-0.1 0.6-0.1 0.8 -0.1 0.5-0.2 1-0.2 1.5 0 0.3 0 0.7 0 1 -0.1 1.1-0.3 2.2-0.7 3.2 -0.1 0.3-0.2 0.6-0.4 0.9 -0.2 0.3-0.4 0.6-0.5 1 -0.2 0.3-0.4 0.6-0.6 0.9 -0.1 0.3-0.3 0.7-0.5 1 -0.3-0.1-0.9-0.1-0.8 0.4s0.6 0.1 0.9 0c0.5-0.1 1-0.2 1.4-0.3 0-0.5-0.5-0.8-0.9-1 -0.1 0.5-0.5 0.9-1 1 -0.4 0.1-0.8 0.4-1.2 0.7C35.7 59.5 34.5 59.8 34.8 60.8"/><path class="st39" d="M40.3 57.3c-1.1-0.1-0.5 0.4 0.1 0.4 0.2 0 0.4-0.1 0.3-0.3s-0.5-0.2-0.6-0.2"/><path class="st13" d="M47 59.3c0 0.4-0.7 0.3-0.9 0.3s-0.4-0.1-0.6-0.1 -0.1 0-0.3 0.1 -0.1 0.2-0.3 0.2c-0.5 0-0.9-0.3-1.2-0.7 -0.1-0.2 0.1-0.4 0.1-0.7 0.1-0.3 0.1-0.5 0.1-0.8 0.1-0.6-0.1-1.1 0-1.7 0-0.3 0.2-1.5-0.1-1.7 -0.2 0.3-0.1 0.7-0.2 1 -0.1-0.7-0.1-1.5 0-2.2 0-0.6 0-1.3 0.1-1.9 0.2-0.6 0.3-1.2 0.3-1.9 -0.1-0.8-0.1-1.6 0.1-2.4 0.1-1.2 0.2-2.4 0.2-3.7 0-0.3 0-0.6 0-0.9 -0.1-0.3-0.2-0.5-0.3-0.7 -0.1-0.3 0-0.6-0.2-0.9s-0.2-0.5-0.3-0.7 -0.4-0.7-0.8-0.7 -0.8 0.4-1 0.7c-0.6 0.8-0.9 1.7-1.1 2.6 -0.2 0.7-0.1 1.5-0.3 2.2 -0.1 0.6-0.1 1.2 0 1.8 0.2 1.3 0.2 2.6-0.2 3.8 -0.1 0.6-0.1 1.2-0.1 1.9 0 1.4-0.4 2.7-1.2 3.8 -0.2 0.2-0.3 0.7-0.6 0.8 -0.2-0.2-0.2-0.5-0.4-0.7s-0.3-0.2-0.4-0.5c-0.2-0.4-0.1-0.9-0.2-1.3s-0.3-0.6-0.2-0.9c0.1-0.4 0.2-0.7 0.3-1.1 0-0.6 0-1.2 0.1-1.7 0-0.3 0-0.6 0.1-0.9s0.2-0.5 0.2-0.8c0.2-1.2 0.7-2.3 0.9-3.5 0.1-0.8 0.1-1.7 0-2.5 0-0.7 0.2-1.5 0.5-2.1 0.2-0.5 0.4-0.9 0.8-1.2 0.7-0.9 1-2.3 1.9-3 0.8-0.6 1.9-0.6 2.7-0.1 0.4 0.3 0.7 0.7 0.7 1.2 0.2 0.5 0.4 1 0.6 1.5 0.1 0.6 0.2 1.2 0.2 1.8 0.1 0.5 0.3 0.9 0.5 1.4 0.6 1.2 0.7 2.5 0.2 3.8 -0.1 0.2-0.3 0.4-0.3 0.6 0 0.3-0.1 0.6 0 0.8 -0.1 0.7-0.2 1.3-0.2 2 0 1.1-0.1 2.2-0.1 3.2s-0.2 2.2-0.2 3.3c0 0.6 0.1 1.2 0.2 1.8C46.5 58.4 46.7 58.9 47 59.3 47 59.4 47 59.4 47 59.3"/><path class="st10" d="M35 26.2c-0.2 0.3-0.3 0.6-0.3 1 0 0.4 0 0.7-0.1 1.1 -0.1 0.3-0.3 0.6-0.4 1 -0.5 1.4-0.1 3.2-0.7 4.6 -0.1 0.3-0.3 0.6-0.7 0.4 0 0.3 0.3 0.6 0.4 0.9 0.1 0.4 0.2 0.8 0.1 1.2 -0.2 0.7-1.2 0.3-1.6 0s-0.7-1-1.1-1.4c-0.5-0.4-1-0.8-1.6-1 -0.3-0.2-0.7-0.2-1.1-0.1 -1.2 0.3-1.1 2-1.1 3 0 0.8 0.3 1.5 0.6 2.2 0.3 0.6 0.7 1.2 1.2 1.6 0.5 0.5 1.1 0.9 1.8 1.3 0.5 0.2 1 0.4 1.4 0.7 0.2 0.1 0.4 0.3 0.5 0.4 0.5 0.8 0.2 1.9 0.8 2.7 0.2 0.2 0.5 0.3 0.6 0.6 0.1 0.3 0.2 0.7 0.1 1.1 -0.1 1.8-2.3 0.9-3 0.1 -0.2-0.3-0.5-0.6-0.7-0.9 -0.3-0.3-0.5-0.6-0.7-0.9 -0.2-0.3-0.2-0.6-0.5-0.9 -0.3-0.2-0.6-0.4-1-0.5 -0.7-0.2-1.5-0.2-2.2-0.1 -1.4 0.3-2.7 2.1-3.1 3.4 -0.3 0.7-0.5 1.5-0.6 2.2 0.1 0.7 0.1 1.4 0 2.1 -0.1 0.7-0.4 1.3-0.6 2 -0.2 1.1-0.3 2.2-0.2 3.3 0 0.4-0.1 0.4-0.2 0.6 0 0-0.2 0.2-0.2 0.2s-0.1 0.3-0.1 0.3c-0.2 0.2-0.4-0.1-0.3 0.4 0 0.1 0.3 0.4 0.4 0.5 -1.9 0.5-1.4-3-1.2-3.9 0.1-0.4 0.2-0.9 0.3-1.3 0.1-0.5 0.1-1 0.1-1.5 0.2-0.7 0.3-1.5 0.4-2.2 0-0.8 0.1-1.5 0.3-2.2 0.2-0.6 0.5-1.3 0.8-1.8 0.5-1 1.1-1.9 1.9-2.7 0.4-0.3 0.8-0.5 1.3-0.8 0.3-0.3 0.8-0.5 1.3-0.5 0.4 0 0.8 0 1.1 0 0.6 0.1 1.3 0.3 1.8 0.6 1.1 0.6 1.9 1.5 2.4 2.6 0.1-0.6-0.2-1.6-0.7-1.8 -0.6-0.2-1.2-0.5-1.8-0.9 -1.5-1-2.8-2-3.3-3.8 -0.5-1.8-0.5-3.7 0.2-5.5 0.3-0.8 0.9-1.5 1.6-1.8 0.7-0.3 1.5-0.3 2.2-0.1 0.8 0.2 1.1 0.9 1.8 1.2 0.2-0.5 0-1.1 0.1-1.6s0.5-1.1 0.6-1.7c0.1-0.3 0.1-0.7 0.2-1 0.1-0.3 0.1-0.7 0.2-1s0.3-0.6 0.4-0.8 0.5-0.3 0.8-0.5 0.6-0.5 0.9-0.7 0.6-0.7 0.7-0.7 0 0 0 0c0.2 0.1 0.4 0.3 0.5 0.5C35.5 25.7 35.1 26 35 26.2"/><path class="st40" d="M25.4 60.5c0.1 0 0.1 0 0.2 0s0 0.2 0 0.2c0.7 0 1.4-0.1 2.2 0 0.5 0.1 1.1 0.1 1.6 0.1 0.3-0.1 0.5-0.2 0.7-0.3 0.4-0.2 1.1-0.5 1.2-1s-0.4-1-0.5-1.4c-0.1-0.2-0.1-0.5-0.2-0.7 0-0.3 0-0.6 0-0.8 -0.1-0.3-0.2-0.4-0.2-0.7s0-0.3 0.4-0.4c0-0.2 0-0.3-0.1-0.5 -0.1-0.6-0.2-1.3-0.2-1.9 0-0.3 0-0.6-0.1-0.9 -0.1-0.2-0.4-0.3-0.4-0.6 0-0.3-0.1-0.7-0.1-1 -0.1-0.6-0.2-1.2-0.5-1.7 -0.1-0.3-0.3-0.5-0.5-0.8 -0.2-0.3-0.4-0.6-0.7-0.9 -0.5-0.3-1.1-0.3-1.6 0 -0.4 0.4-0.7 0.9-0.8 1.4 -0.2 0.4-0.2 0.9-0.1 1.3 0.1 0.6 0 1.3-0.2 1.9 -0.1 0.7-0.1 1.4-0.1 2 0 0.8-0.1 1.6-0.4 2.3 -0.1 0.4-0.5 0.6-0.6 1 0 0.5 0 0.9 0 1.4 0-0.1 0.3-0.2 0.4-0.2s0.2 0.3 0.2 0.5C25 59.2 25 59.6 25 60 25.3 60 25.4 60.1 25.4 60.5"/><path class="st1" d="M26.7 47.7c-0.3 0.5-0.5 1.1-0.4 1.7 0 0.4 0.2 0.8 0.6 1.1 0.2 0.2 0.4 0.5 0.3 0.8 0 0.5 0 1 0 1.5 0 1.2 0.2 2.5 0.5 3.6 0.1 0.6 0.2 1.2 0.4 1.9 0.1 0.3 0.2 0.6 0.5 0.8 0.2 0.1 0.6 0 0.9 0.1 0 0.2-0.5 0.6-0.3 0.9s1-0.2 1.3-0.3c0 0.4-0.8 0.7-1.1 0.8 -0.5 0.1-1.1 0.1-1.6 0 -0.5-0.1-1.4 0.1-1.8-0.2s-0.8-0.4-0.8-1.2c0-0.3 0-0.7-0.2-1 -0.2-0.2-0.3-0.5-0.3-0.8 0.1-0.6 0.6-1 0.7-1.6 0.1-0.4-0.1-0.9 0-1.3s0.5-0.8 0.6-1.2c0.2-0.7-0.1-1.5 0-2.2s-0.3-1.2-0.2-1.8S25.9 47.8 26.7 47.7"/><path class="st38" d="M29.4 49.8c-0.3 0.3 0 0.5 0.1 0.8 -0.3 0.2-0.8-0.3-0.7 0.2s0.6 0.7 0.8 1.1c0.3 0.8-0.9 1.8-0.4 2.5 0.2 0.3 0.3 0.3 0.3 0.7 0 0.4 0 0.7 0 1.1 0 0.3-0.2 0.5-0.2 0.8s0.3 0.4 0.3 0.7 -0.2 0.4 0 0.7c0.2 0.2 0.4 0.3 0.7 0.2 0.2 0.2 0.4 0.5 0.5 0.8 0.1 0.4-0.2 0.4-0.4 0.6 -0.1-0.1-0.1-0.2-0.1-0.4 -0.4-0.1-0.7 0.4-1 0.4 -0.8 0 0.3-0.6 0.2-0.8 -0.4-0.2-0.8-0.1-1.1-0.2 -0.3-0.6-0.5-1.2-0.7-1.8 -0.1-0.7-0.1-1.4-0.3-2.1 -0.2-0.6-0.3-1.3-0.3-1.9 0.1-0.7 0.1-1.5 0-2.2 -0.1-0.5-0.6-0.9-0.8-1.4 -0.1-0.5-0.1-1.1 0.1-1.6 0.1-0.3 0-0.5 0.4-0.6 0.3-0.1 0.6-0.1 0.8 0.1 0.4 0.3 0.8 0.7 0.9 1.2 0.2 0.5 0.7 0.8 0.6 1.3"/><path class="st39" d="M38.3 58.1c0-0.3 0.1-0.5 0.3-0.8 0.4 0.2 0.7 0.5 1 0.9 -0.4 0.3-0.8 0.5-1.3 0.6 -0.2 0.1-0.4 0.2-0.7 0.2 -0.2 0-0.5-0.2-0.7-0.2 0-0.2 0-0.3 0.2-0.4C37.6 58.5 38 58.4 38.3 58.1"/><path class="st13" d="M36.7 33.7c0.1 0 0.1 0.1 0.2 0.1 0 0.3-0.3 0.5-0.5 0.7s-0.5 0.7-0.7 1.1c-0.4 0.5-0.6 1.1-0.7 1.8 0 0.3-0.1 0.6-0.3 0.8 -0.2 0.3-0.3 0.5-0.4 0.9 -0.1 0.6 0.3 0.6 0.5 1 0 0.1 0 0.4 0 0.5s0.2 0.2 0.3 0.4c0.2 0.4-0.1 0.5-0.4 0.9 -0.2 0.3-0.4 0.6-0.6 0.9 0-0.3 0.5-1.9-0.5-1.5 -0.5-1.5 0.6-3.3 0.4-4.8 0-0.3-0.2-0.6-0.1-0.9s0.4-0.5 0.6-0.8c0.2-0.4 0.4-0.8 0.4-1.2 0-0.4 0.1-0.7 0.2-1.1 0.2-0.4 0.3-0.9 0.4-1.4 0-0.8 0.1-1.6 0.2-2.4 0 0.7 0.2 1.4 0.5 2.1 0.1 0.3 0.2 0.5 0.4 0.7 0.3 0.4 0.7 0.4 0.6 1S36.7 33.2 36.7 33.7"/><path class="st13" d="M41.7 37.7c0.4-0.3 1-0.4 1.5-0.3 0.4 0.2 0.8 0.5 1.2 0.8 -0.3 0-0.5 0.1-0.7 0.3 0.5 0 0.9 0.1 1.3 0.4 -0.3 0.3 0.2 0.5 0.4 0.7 0.2 0.3 0.3 0.5 0.4 0.8 0.2 0.7 0.5 1.3 0.7 2 0.1 0.8 0.1 1.7 0 2.5 0 0.5-0.1 0.9-0.1 1.4 -0.1 0.4-0.2 0.7-0.2 1.1 -0.2-0.4-0.3-0.8-0.4-1.3 -0.2 0.3-0.4 0.6-0.4 1 0.1-0.8-0.1-1.8-0.1-2.6 0-0.7 0-1.4-0.1-2.1 -0.5 2.7-0.1 5.4-0.3 8.1 -0.2-0.2-0.3-0.5-0.4-0.8 -0.3 1.3-0.3 2.6-0.1 3.9 0.2 0.5 0.3 1.1 0.3 1.6 -0.1 0.5-0.1 1.2-0.2 1.8 0.1-0.3 0.3-0.6 0.6-0.7 0.3 0 0.3 0.3 0.5 0.2 0.2 0.1 0.4 0.5 0.6 0.7 0.1-0.4-0.2-0.8-0.1-1.2s0.2-0.6 0.2-1c0-0.8 0-1.5 0.1-2.3 0.1-1.5 0-3.1 0.2-4.6 0-0.7 0.2-1.4 0.5-2 0.3-0.7 0.4-1.5 0.4-2.3 -0.1-0.9-0.7-1.5-0.9-2.3 -0.1-1-0.3-2-0.6-3 -0.2-0.5-0.4-1-0.6-1.4 -0.4-0.5-0.9-0.8-1.5-0.9 -0.7-0.1-2.1 0.3-2 1.3L41.7 37.7"/><path class="st13" d="M41.7 40c-1 0.5-1.6 1.5-1.7 2.7 0 0.6 0 1.2-0.1 1.8 -0.1 0.4-0.3 0.9-0.4 1.3 -0.3 0.8-0.5 1.6-0.7 2.4 0 0.8-0.1 1.6-0.3 2.3 -0.3 0.9-0.4 1.8-0.4 2.7 0.1-0.1 0.2-0.3 0.3-0.4 0 0.2 0.1 0.4 0.2 0.6 0.4-0.9 0.7-1.9 0.9-2.8 0.3-0.8 0.4-1.7 0.4-2.6 -0.3 1.1 0 2.4-0.2 3.5 -0.1 0.6-0.3 1.3-0.4 1.9 -0.1 0.5-0.2 1-0.3 1.5 -0.3 0.5-0.5 1.1-0.5 1.8l0.1 0.1c0.6-0.4 0.9-1.4 1.2-2.1 0.3-0.7 0.4-1.4 0.4-2.2 0.2-1.5 0.4-3 0.4-4.4 0-0.7-0.2-1.4-0.2-2.1 0-0.6 0-1.3 0.2-1.9 0.2-0.7 0.1-1.5 0.2-2.1 0.2-0.7 0.4-1.3 0.8-1.8"/><path class="st41" d="M31.6 48.4c0.3 0.3 0.6 0.7 0.9 1.1 0.2 0.4 0.2 0.8 0.4 1.2 0.3 0.4 0.4 0.8 0.5 1.2 0 0.5 0.1 0.9 0.2 1.4 -0.4-0.3-0.7-0.7-0.9-1.1 0 0.5 0.1 0.9 0.1 1.4C32 53 32.4 52 32.2 51.3c-0.1-0.6-0.2-1.4-0.8-1.8 0 0.1 0 0.2 0 0.4 -0.3-1-0.8-1.9-1.5-2.7 -0.5-0.7-2-1.4-2.1-2.2 -0.2-0.1-0.3-0.1-0.5-0.2 0.6 0 1.2 0.3 1.6 0.7 0.3 0.3 0.5 0.7 0.8 1C30.3 47.2 31 47.8 31.6 48.4"/><path class="st5" d="M28.4 46.6c-0.4-0.3-0.9-0.3-1.3-0.1 0-0.1 0.1-0.2 0.2-0.3 -0.3-0.1-0.6-0.1-0.9-0.2 0.4-0.2 0.9-0.3 1.3-0.3 -0.6-0.5-1.4-0.6-2.1-0.4 0.7-0.3 1.5-0.3 2.2-0.1 -0.4-0.3-0.8-0.4-1.3-0.5 -0.5 0-0.8 0.3-1.2 0.4 0.4-0.6 1.6-0.6 2.2-0.5s0.9 0.8 1.3 1.2c1 1 1.9 1.7 2.3 3 0.1 0.4 0.3 0.8 0.4 1.1 0-0.2 0-0.4 0-0.6 0.6 0.6 0.8 1.4 0.8 2.3 0 0.6 0 1.7 0.5 2.1 0-0.2 0.1-0.2 0.2-0.3 0.2 0.1 0.2 0.2 0.2 0.4 0.3 0.5 0.6 0.9 0.8 1.3 0.1 0.2 0.2 0.5 0.3 0.7 0.1 0.5 0.2 1 0.4 1.5 0.3 0.4 0.5 0.5 0.9 0.2s0.6-0.6 0.8-1.1c0 0.6-0.2 1.8-1 2 0.4-0.2 0.8-0.5 1.1-0.8 0 0.5-0.3 0.9-0.7 1.2 0.2 0 0.3-0.1 0.4-0.1 -0.5 0.5-1.3 0.7-2 0.6 -0.5-0.1-1.4-0.3-1.5-0.9 0.1 0 0.2 0 0.3 0 -0.6-0.4-1.2-0.9-1.6-1.6 -0.3-0.7-0.4-1.5-0.5-2.2 -0.3-1.4-0.5-2.8-0.8-4.2S29.6 47.6 28.4 46.6"/><path class="st13" d="M37.6 39.2c-0.1 1-0.7 2-1.6 2.5 -0.4 0.2-0.7 0.5-1 0.8 -0.1 0.1-0.3 0.2-0.3 0.4s0.2 0.2 0.3 0.3 0.1 0.3 0.1 0.3 0.2 0.3 0.2 0.3c0.1 0.3 0.2 0.5-0.1 0.8 -0.8 0.5-0.8-0.6-1.3-0.9 0.3 0.9-0.5 1.3 0.5 2.1 0.4 0.3 0.7 0.4 0.6 1 -0.1 0.3-0.2 0.7-0.4 1 -0.1 0.4-0.3 0.7-0.7 1 -0.3 0.2-0.4 0.6-0.4 0.9 0 0.4 0.3 0.6 0.5 1s0.3 0.6 0.4 0.9c0.6 1.2 0.7 2.7 1.2 3.9 -0.3 0.4-0.5 0.6-0.4 1.2 0.1 0.4 0.5 0.8 1 0.4 0.1-0.1 0.6-1.1 0.5-1.2s-0.6 0-0.8-0.2 -0.1-0.4-0.1-0.6c-0.2-1.8-0.3-3.6-0.3-5.5 0-0.5 0.1-0.9 0.2-1.4 0.1-0.2 0.2-0.5 0.3-0.8s0.2-0.2 0-0.5c-0.3-0.5-0.5-0.4-0.5-1.1 0-0.4 0.1-0.7 0.2-1.1 0.1-0.5 0-1 0.1-1.5 0.1-0.4 0.3-0.9 0.5-1.3 0.4-0.6 0.8-1.3 1.2-2 0-0.2 0.1-0.5 0.2-0.7"/><path class="st5" d="M29.4 36.1c0.1 0.5 0.4 1 0.8 1.3 0.3 0.2 0.9 0.7 1.3 0.5 0 0.6 0.4 0.7 0.5 1.2 0.2 0.4 0.2 0.9 0.1 1.4 -1-0.6-2-1.3-2.9-2.1 -0.5-0.5-0.8-1.1-1-1.7 -0.1-0.4-0.3-0.9 0.1-1.2 0.3-0.2 0.5-0.3 0.8-0.5C29.4 35.2 29.3 35.7 29.4 36.1"/><path class="st1" d="M38.7 26.9c0.8 0.5 0.6 1.9 1.1 2.5s0.8 0.2 0.6-0.4c-0.2-0.5-0.7-0.7-0.8-1.2 -0.2-0.9 0.7-1.6 1.5-2 0.9-0.5 2 0.2 3 0.1 -0.1-0.2-0.4-0.4-0.6-0.4 -0.1-0.6-0.9-0.7-1.4-1s-0.8-0.6-1.3-0.9c0-0.1 0-0.2 0.1-0.3 -0.2-0.1-0.2-0.3-0.3-0.4 1-0.6 1.6-2.1 3-1.8 0-0.1-0.1-0.1-0.2-0.1 0.6 0 0.2 0.3 0.3 0.6s0.1 0.5 0.5 0.8c-0.6 0.8 0.6 0.9 1.2 1.4 -0.4 0-0.8 0.1-1.1 0.3 0.6-0.1 1.2 0 1.7 0.3 0.3 0.3 0.2 0 0.4 0.4 -0.5-0.7-0.9-0.3-1-0.4 0.2 0.1 0.3 0.3 0.5 0.3 -0.6 0-1.7-0.4-2.2 0 1 0.3 2.1 0.3 2.9 1.1 -1 0-1.7-0.2-2.6-0.3 0.4 0.2 0.8 0.3 1.2 0.5 -0.4 0.3-1.2 0.3-1.7 0.6 0.4 0.1 1 0 1.3 0.3 -0.6-0.1-1.2 0.2-1.6 0.7l0.2 0.1c-0.2 0.1-0.4 0.3-0.5 0.5 0.7 0.9 1 1.5 0.2 2.4s-1.6 1.1-2.8 1.2 -2.2 0-2.8-1.1c-0.5-0.9-0.6-2-0.3-3C37.4 27 38.1 26.4 38.7 26.9"/><path class="st1" d="M34 23.7c-0.6 0-1.5 0.3-1.7 1s0.2 1.2 0.9 1.5c0.4-0.3 0.2-0.5 0.3-0.7s0.6-0.2 0.8-0.5C34.8 24.5 34.1 24.3 34 23.7"/><path class="st42" d="M35.7 21.6c0 0-0.8-1.4 0.4-2s1.4 0.2 1.4 0.2c0.1 0.5 0.2 1 0.5 1.4 0.3 0.3 1.8 1.5 1.3 2.7 0.1 0.3-0.1 0.6-0.3 0.7 -0.6 0.2-1.2 0.2-1.7-0.2 -0.5-0.5-0.2-1-0.8-1.3s-0.5-0.4-0.5-0.7C35.9 22 35.8 21.8 35.7 21.6"/><path class="st0" d="M38 20.7c0.1 0.1 0.3 0.2 0.4 0.3s0 0.2 0.1 0.3 0.4 0.3 0.6 0.5c0.3 0.4 0.4 1.1 0.6 1.5s0.6 1 0 1.6c-0.5 0.4-1.3 0-1.8-0.1 0-0.1-0.1-0.2-0.3-0.2 0 0 0 0 0 0 0.4 0.1 1.2 0.2 1.6-0.1 0.3-0.4 0.4-0.9 0.3-1.3 -0.1-0.4-0.3-0.8-0.6-1.1 -0.2-0.2-0.5-0.8-0.8-0.8C38 21.1 38 20.9 38 20.7"/><path class="st41" d="M51.8 52.9c0 0-1.5 4.4-1.3 5.6s1.5-3 1.5-3S52.8 52.1 51.8 52.9"/><path class="st0" d="M50.5 32.4c0 0-2-1.4-2.8 0.3 0 0.4 0 0.9 0 1.3l0.1 0.7c0.3 0.6 0.7 1.1 1.2 1.6 0.3 0.2 0.7 0.7 1.4 0 0.4-0.5 1-0.8 1.7-0.9C52.5 35.3 51.3 35 50.5 32.4"/><path class="st0" d="M51.3 30.7c0-1.8 0.8-3.6 2.2-4.7 0 0 0.6-0.1 0.8 0.2l0.5 0.4 0.1 3.2 -0.5 0.6c-0.3 0-0.6 0-0.9 0 -0.3 0-0.6 0.2-0.9 0.4 -0.3 0.2-0.3 0.4-0.3 0.4L51.3 30.7z"/><path class="st0" d="M56.4 32c0 0-0.8 0-0.3-1.2 0.3-0.5 0.7-0.7 1.3-0.7 0 0 0.6-0.1 0.6 0.7 0.2 0.4 0.4 0.8 0.7 1.2 0.5 0.3 0.7 0.8 0.5 1.3L59 34.2l-0.4 0.6c0 0-0.2 0.7-0.4-0.3 -0.1-0.3-0.3-0.5-0.6-0.6 0 0-0.1 0.2-0.6-0.7 0 0-0.2-0.2 0.2-0.1C57.2 33.2 57.6 33.5 56.4 32"/><path class="st0" d="M56.7 37.8c-0.5-0.2-0.9-0.6-1-1.1 -0.3-0.9 0.8 0.7 1 0.7S56.7 37.8 56.7 37.8"/><path class="st43" d="M56.6 31.9c0 0 1 0.7 0.6-0.4 -0.1-0.3-0.5-0.4-0.7-0.2 0 0-0.1 0-0.1 0.1l-0.1 0.2L56.6 31.9z"/><path class="st44" d="M57.3 32.9c0 0 0.5-0.6 1-0.3s0.8 0.5 0.6 0.6c-0.3 0.1-0.6 0.1-0.9 0.1h-0.4C57.5 33.4 57.1 33.5 57.3 32.9"/><path class="st44" d="M47.8 33.4c0.2 0.1 0.4 0.1 0.6 0 0.2-0.1 0.4-0.1 0.6 0L48.8 33c-0.2 0-0.3-0.1-0.3-0.2 0 0 0-0.1 0-0.1 0-0.4-0.7 0.2-0.7 0.2L47.8 33.4z"/><path class="st44" d="M49.4 33.9c0 0-0.6 0-0.7 0.3s0.1 0.3 0.3 0.4 0.7 0.4 0.9 0.3 -0.1-0.1 0-0.5c0.1-0.3 0.1-0.5 0-0.8 0 0-0.3-0.3-0.6-0.2S49.3 33.9 49.4 33.9"/><path class="st44" d="M51.4 34.5c0 0-0.7-0.1-0.8 0.1S51 35 51 35h0.7L51.4 34.5z"/><path class="st44" d="M49.5 35.2c0 0 0.4 0.4 0.5 0.6s-0.5 0-0.5 0 -0.8 0.1-0.8-0.2 0-0.5 0.5-0.5S49.5 35.2 49.5 35.2"/><path class="st44" d="M52 29.1c0.4 0 0.7 0.3 0.8 0.6 0.2 0.6 0.2 0.1-0.5 0.1s-0.8-0.3-0.7-0.6C51.7 29.2 51.8 29.1 52 29.1"/><path class="st44" d="M53.9 27.6c0 0 0-0.6-0.3-0.5s-0.8 0.1-0.8 0.3 0.5 0.4 0.6 0.3c0.3 0 0.5 0 0.8 0L53.9 27.6z"/><path class="st44" d="M53.2 28.1L53 28.2c0 0 0.5 0.1 0.6 0.3v0.2c0 0-1.2 0.1-1.3-0.1S52 28 52.5 28C52.7 28.1 52.9 28.1 53.2 28.1"/><path class="st44" d="M53.9 29.1c0 0 0.5 0.3 0.3 0.7 0 0-0.9 0.1-1.2-0.3s0.3-0.5 0.3-0.5L53.9 29.1z"/><path class="st45" d="M48.9 58.5c-0.2-0.2-0.9-0.3-0.8 0.1 0 0.2 0.4 0.2 0.5 0.2s0.3-0.1 0.3-0.1c0 0 0.1 0 0.1 0C48.9 58.6 48.9 58.5 48.9 58.5"/><path class="st12" d="M59.4 51c-0.4 0.2-0.8 0.7-0.9 1.2 -0.1 0.5 0 1 0 1.4 -0.1 0.5-0.3 1-0.5 1.4 -0.1 0.3 0 0.8-0.2 1.1 0.2-0.2 0.2-0.4 0.4-0.5 0 0.2 0 0.4 0 0.6 0.2-0.2 0.4-0.4 0.6-0.6 0 0.5-0.1 1-0.3 1.5 -0.1 0.3-0.2 0.7-0.4 1 -0.4 0.8-0.8 1.4-1.7 1.4 0.6 0 0.9-0.8 1.1-1.2 0.1-0.3 0.2-0.6 0.3-0.8 0.2-0.2 0.3-0.4 0.4-0.6 -0.3 0.5-0.7 0.9-1.1 1.3 -0.3 0.3-0.6 0.5-0.9 0.8 0-0.2 0.1-0.4 0.2-0.6 -0.1 0.2-0.3 0.3-0.5 0.4 0.2-0.4 0.3-0.9 0.3-1.3 -0.1 0.1-0.2 0.1-0.3 0.2 0.2-0.8 1.2-1.1 1.1-2 -0.4 0.2-0.6 0.7-0.9 0.9 0.4-0.5 0.8-1.1 1-1.7 0.2-0.6 0.2-1.3 0.4-1.9 0.2-0.6 0.4-1.1 0.8-1.5 0.2-0.2 0.4-0.4 0.6-0.6 0.1-0.1 0.7-0.3 0.6 0C59.6 50.9 59.3 50.9 59.4 51"/><path class="st12" d="M60.1 51.9c0.4 0.7 0.5 1.6 0.4 2.4 0 0.5 0.1 1.1 0.3 1.6 0.2 0.6 0.1 1.2 0.3 1.8 0.1 0.5 0.7 0.9 1.2 0.7 0 0 0.1 0 0.1 0 0 0.2-0.2 0.4 0 0.6C62 59.4 61.3 59 61 58.7s-0.5-0.8-0.6-1.4c-0.1-0.6-0.2-1.2-0.3-1.8 0-0.7 0-1.3-0.1-1.9 0-0.3-0.1-0.6-0.1-0.9 0-0.2 0.1-0.5 0.1-0.7"/><path class="st5" d="M53.4 54.8c0.4 0.5 0.6 1.2 0.3 1.8 -0.2 0.6-0.2 1.3 0.1 1.8 -0.2-0.5-0.7-0.6-0.7-1.3v0.4c0-0.6 0-1.3 0-1.9 -0.2 0.5-0.3 0.9-0.4 1.4C52.6 56.2 53.2 55.6 53.4 54.8"/><path class="st5" d="M53.6 51.8c0.3 0.3 0.4 0.7 0.4 1.1 0-0.8 0.7-1.4 0.6-2.2 -0.3-0.2-0.6-0.3-0.9-0.4 0 0.3 0.4 0.4 0.7 0.6 0 0.4-0.4 0.8-0.8 0.8 0 0.1 0.1 0.2 0.2 0.3"/><path class="st13" d="M62.3 50.3c0.1 0.4 0.5 0.5 0.7 0.9 0 0.3 0 0.6 0 0.9 0 0.6-0.1 1.2-0.1 1.9 0 0.6 0 1.3 0.2 1.9 0.1 0.6 0.3 1.2 0.5 1.8 0.2 0.4 0.5 1.2 0.2 1.6 -0.4 0.4-1 0.5-1.5 0.4 0.2-0.1 0.6-0.2 0.6-0.4 -0.5 0 0-0.7 0-0.9 0-0.5-0.4-0.4-0.8-0.6 0 0 0-0.1 0-0.1 0.7-0.1 0.5-0.6 0.5-1.2s0-1.1 0-1.7c-0.1-1.1-0.1-2.3-0.1-3.5C62.6 51 62.5 50.6 62.3 50.3"/><path class="st13" d="M60 54.9c-0.3-0.3-0.4-0.8-0.5-1.1 0 0.7 0 1.3-0.1 2 -0.1 0.5-0.2 1-0.5 1.5 -0.4 0.9-0.8 1.7-1.4 2.4 0.3-0.2 0.6-0.2 0.9-0.4 0.2-0.2 0.4-0.5 0.6-0.8 0.2-0.3 0.3-0.6 0.5-0.9s0.2-0.7 0.4-0.8c0 0.1 0 0.1 0.1 0.1C60.1 56.2 60.1 55.5 60 54.9"/><path class="st46" d="M60 44.3c-0.8 0.1-2.1 0.7-2.3 1.5 0.6-0.1 1.2-0.2 1.8-0.5 -0.2 0.3-0.4 0.4-0.6 0.7 -0.2 0.3-0.3 0.7-0.4 1 -0.1 0.4-0.4 0.8-0.7 1.1 -0.2 0.2-0.6 0.4-0.8 0.6s-0.8 1.1-0.7 1.6c0 0.2 0.3 0.4 0.5 0.6s0.2 0.5 0.3 0.7c0-0.5 0-0.9-0.1-1.4 -0.1-0.4-0.1-0.4 0.2-0.7 0.5-0.4 0.9-0.9 1.3-1.4 0.4-0.5 0.6-1.1 1-1.5l0.6-0.8c0.2-0.2 0.4-0.3 0.6-0.5C61.1 44.8 60.3 44 60 44.3"/><path class="st47" d="M56.4 43.7c-0.2 0-0.4 0.2-0.4 0.4s0.3 0.1 0.1 0.5c0.2 0.2-0.2 0.4-0.3 0.6 -0.1 0.2-0.3 0.5-0.3 0.7 0-0.4 0.1-0.9 0.2-1.3 0-0.1-0.1-0.2-0.1-0.3s0.1-0.1 0.2-0.3 0.2-0.5 0.4-0.5 0.3 0.1 0.5 0.2"/><path class="st46" d="M53.2 52.3c0.2 0.6 0.1 1.2-0.1 1.8 -0.2 0.7-0.4 1.4-0.4 2.1 0.2-0.6 0.4-1.1 0.7-1.7 0 0.2 0.3 0.5 0.4 0.7 0-0.3 0-0.6 0-0.9 0-0.2-0.1-0.3-0.1-0.4 -0.1-0.2 0-0.5 0-0.7 0.2-0.6 0-1-0.5-1.4 0 0.2 0 0.4 0.1 0.5"/><path class="st48" d="M12.9 30.1c0.3-0.2 0.4-0.4 0.4-0.7 0.1-0.4 0.1-0.7 0.4-1 0.2-0.1 0.3-0.2 0.5-0.3 0.3-0.1 0.6 0 0.8-0.2 -0.1 0-0.1-0.1-0.2-0.1 0.2-0.1 0.4-0.1 0.7-0.1 0 0 0-0.1 0-0.1 0.2-0.1 0.2 0 0.4 0.1s0.1 0.1 0.2 0.1 0.1-0.1 0.2-0.1c0.3 0.1 0.5 0.2 0.8 0.3 0.7 0.2 0.9 0.7 1.4 1.2 0.2-0.1 0.2-0.3 0.4-0.4s0.4 0 0.5 0.2 0.2 0.2 0 0.5 -0.2 0.3 0.1 0.5c0.4 0.4 0.6 0.5 0.5 1.1 -0.1 0.5-0.1 1 0 1.5 0.4 0.1 0.5-0.7 0.7-0.9 0.2-0.3 0.5-0.6 0.8-0.9 0.5-0.7 1-1.5 1.3-2.3 0.2 0.1 0.6 0 0.8 0.1s0.2 0.7 0.3 0.9c0.1 0.7-0.1 1.4-0.5 1.9 -0.4 0.5-0.8 0.8-0.9 1.4 0 0.3 0 0.6 0 0.9 -0.1 0.3-0.2 0.6-0.3 0.9 -0.1 0.4 0.1 0.4 0.2 0.8 0 0.2 0 0.5-0.1 0.7 -0.2-0.3-0.4-0.2-0.5 0 -0.1 0.2-0.3 0.4-0.4 0.6 -0.1 0.4 0.2 1-0.1 1.2 -0.1 0.6-0.3 1.1-0.5 1.7 -0.1 0.3-0.2 0.6-0.3 0.9 -0.2 0.4-0.3 0-0.6 0.2 -0.1 0.1-0.2 0.7-0.2 0.8 -0.1 0.3 0 0.4 0.1 0.7 0 0.1-0.1 0.3-0.1 0.4 -0.1 0.3-0.2 0.6-0.2 0.9 -0.1 0.3-0.2 0.6-0.4 0.8 -0.2 0.3-0.2 0.4-0.5 0.5 -0.2 0-0.5 0-0.7 0 -0.2-0.7-0.4-1.3-0.7-1.9 -0.1-0.4-0.1-1.2-0.7-1.3s-1 0.3-1.3-0.4c-0.1-0.2-0.1-0.5 0.1-0.6 0.2-0.3 0.2-0.4 0-0.7s-0.1-0.2 0-0.7c0-0.3-0.1-0.6-0.3-0.8 0.2-0.4-0.1-0.6-0.4-0.8s-0.4-0.3-0.3-0.7 0.4-0.4 0.9-0.4c1 0.1 0.5-0.8 0.3-1.3s-0.1-1-0.2-1.4c-0.1-0.4-0.2-0.9-0.5-1.3 -0.2-0.3-0.5-0.5-0.9-0.5C13.6 31 13.1 30.6 12.9 30.1"/><path class="st49" d="M15.6 30c-0.1 1.5 1.1 3 1.4 4.5 0.1 1.1 0 2.3-0.2 3.4 0-0.8 0.3-1.6 0.8-2.3 0.4-0.7 0.7-1.4 1.6-1.7 -0.6 1-1.1 2-1.4 3.1 -0.2 1 0 2-0.4 2.9 -0.3 0.8-0.4 1.7-0.3 2.5 0 0.3 0.1 0.7 0.2 1 0.1 0.3 0.4 0.8 0.3 1.1 0 0 0 0.1 0 0.1 -0.3 0-0.8 0.2-1 0 -0.2-0.3-0.2-0.7-0.1-1 0.1-0.3 0.3-0.5 0.3-0.9 0-0.4-0.1-0.7-0.3-1 -0.2-0.3-0.4-0.5-0.8-0.5s-0.6 0.2-0.7-0.3c-0.2-0.7 0.3-1.4 0.2-2 0-0.4-0.2-0.8-0.4-1.2 -0.2-0.4-0.9-0.4-1-0.7s0.5-0.5 0.8-0.5c0.4 0 0.7 0.2 1 0.5 0.5 0.3 0.4 0.6 0.6 1s0.4 0.2 0.4-0.2c-0.1-0.4 0-0.7 0.1-1.1 0.1-0.4 0.2-0.8 0.2-1.2 0-1.8-1.1-3.4-1.2-5.3"/><path class="st4" d="M19.6 42c-0.1 0.2-0.2 0.5-0.3 0.7 -0.1 0.2-0.1 0.5-0.2 0.7 -0.1 0.2-0.2 0.5-0.4 0.7 -0.1 0.2-0.4 0.5-0.4 0.7 0.7 0.2 1-1.5 1.1-1.8S19.7 42.2 19.6 42"/><path class="st50" d="M18.9 55.6c0.1 0.3-0.2 0.7 0 1.1C19.1 56.3 19.1 55.9 18.9 55.6"/><path class="st51" d="M67.8 58.7c0.1 0 0.2 0 0.3 0.1 0.1 0 0.2 0.1 0.3 0 0-0.1 0-0.2 0-0.2 0-0.1-0.1-0.1-0.2-0.2 -0.1 0-0.1 0-0.2 0.1 0 0 0 0 0 0 0 0.1 0 0.2 0 0.2 -0.2 0-0.1-0.3 0-0.4 0.1-0.1 0.3-0.1 0.4 0 0 0 0.1 0.1 0.1 0.2 0.1 0.2 0.1 0.5 0 0.7h-0.1c0 0 0-0.2 0-0.2s-0.2 0-0.2 0c-0.1 0-0.1 0-0.2 0 0 0.1 0 0.2 0 0.3 0 0-0.1 0-0.1 0 0-0.1 0-0.3 0-0.4S67.8 58.8 67.8 58.7"/><path class="st52" d="M69.3 59.3c0-0.1-0.1-0.3-0.2-0.3S69 59 69 59s0 0.1 0 0.2h-0.2c0-0.1 0-0.3 0-0.4 0.1 0 0.3 0 0.4 0.1 0.1 0 0.2-0.2 0.3-0.3 0.1-0.1 0.1-0.2 0-0.3 0 0 0 0 0 0 -0.1-0.1-0.2-0.1-0.3-0.1L69 58.3c0 0-0.1 0-0.1 0 0 0.1 0 0.1 0 0.2 0 0.1 0 0.2 0 0.2 0.1 0 0.1 0 0.2 0 0-0.2-0.1-0.5 0.2-0.5 0.1 0 0.3 0 0.2 0.2s-0.1 0.1-0.1 0.1l-0.1 0.1 -0.1 0.1"/><path class="st52" d="M69.2 58.9c0 0.1 0.1 0.1 0.2 0.2 0 0.1 0 0.1 0 0.2h-0.1c0-0.1 0-0.2 0-0.2 0 0 0 0-0.1-0.1C69.2 59 69.2 58.9 69.2 58.9"/><path class="st52" d="M69 58.3c0-0.1 0-0.2 0-0.3 -0.1 0-0.1 0-0.1 0.1 0 0.1 0 0.2 0 0.2L69 58.3"/><path class="st52" d="M69.8 58.3c0 0 0 0.1 0 0.1l0.1 0.1c0.1 0 0.2 0 0.3 0 0 0.2 0 0.4 0 0.6 -0.1 0-0.1 0.1-0.1 0.1h-0.1l0 0c-0.1 0-0.2-0.1-0.3-0.1 0 0 0 0.1 0.1 0.1 0.1 0 0.2 0.1 0.3 0.1 0.2 0 0.3 0.1 0.5 0.1 0 0 0-0.1 0-0.1 -0.1 0-0.2 0-0.3 0 0-0.1 0-0.2 0-0.4 0-0.1 0-0.2 0-0.4 0.1 0 0.1 0 0.2 0h0.2c0 0 0-0.1 0-0.1 -0.2 0-0.3-0.1-0.5-0.1H70C70 58.3 69.9 58.2 69.8 58.3"/><path class="st52" d="M71.3 58.4c0 0.2-0.1 0.5-0.2 0.7 0 0.1-0.1 0.2-0.1 0.3s0 0-0.1 0.1c0 0 0 0.1 0 0.1 0.1 0 0.3 0 0.4 0 0.1 0 0.1 0.1 0.2 0.2 0.1 0 0.1 0.1 0.2 0.1 0 0 0.1 0 0.1 0 0 0 0-0.1 0-0.1 -0.1 0-0.2-0.1-0.4-0.2 -0.1 0-0.1-0.1-0.2-0.1h-0.1c0 0-0.1 0-0.1 0 0 0 0.1-0.2 0.1-0.2s0.1-0.1 0.2-0.1c0.2 0 0.3 0 0.5 0 0 0 0-0.1 0-0.1h-0.5c0-0.1 0-0.1 0.1-0.2 0 0 0-0.1 0-0.1s0.1 0 0.2 0 0.3 0 0.4-0.1 0-0.1 0-0.1 -0.2 0.1-0.2 0.1c-0.1 0-0.2 0-0.3 0C71.3 58.7 71.4 58.6 71.3 58.4 71.4 58.5 71.4 58.4 71.3 58.4L71.3 58.4"/><path class="st52" d="M72.4 58.6c0 0.1 0 0.2 0 0.2 0 0.1 0 0.1 0 0.2 0 0.1 0.1 0.3 0.1 0.4 0.1 0.1 0.2 0.2 0.3 0.3 0.1 0 0.2 0.1 0.3 0.1l0 0c0 0 0-0.1 0-0.1 -0.1 0-0.2-0.1-0.3-0.1 -0.1-0.1-0.2-0.1-0.2-0.2 0-0.1-0.1-0.2-0.1-0.3C72.5 58.9 72.5 58.8 72.4 58.6 72.5 58.6 72.5 58.6 72.4 58.6L72.4 58.6"/></svg>