<svg xmlns="http://www.w3.org/2000/svg" viewBox="0 0 436.1 427.51"><defs><style>.\31 8d221e1-9f28-48b6-8898-7e4003a59063{fill:#fff;}</style></defs><title>Asset 1</title><g id="58fc7967-49ee-4644-b3f6-2da372e2f50f" data-name="Layer 2"><g id="93697dfc-5cf7-4d60-8655-4645f9815f05" data-name="Layer 1"><path class="18d221e1-9f28-48b6-8898-7e4003a59063" d="M435,168.05a7.68,7.68,0,0,0-1.2-1.33c-1.41-1-1.32-2.42-1-3.79a1.86,1.86,0,0,0-.57-1.88q-12.36-13.56-24.69-27.15-16.49-18.24-32.93-36.51-17-18.78-33.9-37.56-14.65-16.26-29.3-32.51c-1.15-1.28-2.07-2.89-3.94-3.35a1.15,1.15,0,0,1-.58-.59,2.43,2.43,0,0,0-2.58-1.29c-5.72,0-11.44,0-17.16,0-2.16,0-4.32,0-6.48,0-.42,0-1.19.29-1.2.48-.07,1.18-1,1.16-1.74,1.52a5.6,5.6,0,0,0-1.56,1q-6.24,6.72-12.43,13.5c-1.09,1.19-1.17,1.19-2.33,0Q245.6,22.87,229.79,7a22.29,22.29,0,0,0-16-7,22,22,0,0,0-16.12,6.82Q168,36.52,138.37,66.17L78,126.59l-32.62,32.6q-19.3,19.32-38.63,38.63a22.11,22.11,0,0,0-.09,31.74Q30.82,253.7,55,277.85q18.39,18.38,36.77,36.76,14.68,14.67,29.33,29.37L164,386.93q17,17,33.92,33.95a22.93,22.93,0,0,0,15.76,6.63,23.53,23.53,0,0,0,16.15-7.05q27.39-27.49,54.83-54.93,17.58-17.62,35.15-35.25Q369.86,280.18,420,230.11a22.6,22.6,0,0,0,5.49-8.05c1.17-3.15,2.29-6.38,1.81-9.79a24.06,24.06,0,0,0-2.69-8.76,4.17,4.17,0,0,1-.34-3.22c1.17-5,2.25-10,3.49-14.92a15.77,15.77,0,0,1,1.83-4.63c1.76-2.76,3.82-5.32,5.71-8C436.47,171.05,436.35,169.65,435,168.05ZM122.92,301.51a2.09,2.09,0,0,0-.59-.31,2.09,2.09,0,0,1,.59.31Zm189.13-7.68c.5.6.23.85-.38,1.14a8,8,0,0,0-2.36,1.38c-2.82,2.82-5.53,5.76-8.34,8.6-1.9,1.92-3.86,3.81-5.91,5.58a52,52,0,0,1-4.27,3c-.39.28-.78.55-1.16.85-1,.85-2.1,1.67-3.1,2.56a15.13,15.13,0,0,0-1.31,1.62c-1.42-.68-2.35.84-3.6,1.6-2.13,1.3-4.33,2.48-6.44,3.8a12.79,12.79,0,0,0-1.9,1.83c-.47-.25-1.27-.55-1.27,1.09-1.39-.88-2.15.1-3.13.59-1.6.81-3.32,1.35-5,2s-3.28,1.45-5,2.08c-2.16.81-4.34,1.58-6.54,2.28-2.69.86-5.39,1.7-8.12,2.41-1.66.44-3.37.61-5.06.92-.7.12-1.39.3-2.1.43-1.95.35-3.89.81-5.86,1-3.52.34-7.11.25-10.58.84a49.52,49.52,0,0,1-10,.33c-4.53-.14-9-.67-13.56-1.07-1.42-.13-2.86-.66-4.25-.53-1.81.17-3.17-.88-4.77-1.19-.36-.06-.76-.3-1-.21-2.53.85-4.34-1.3-6.6-1.52-.72-.07-1.46-.07-2.19-.15a3.06,3.06,0,0,1-1-.27c-1.29-.57-2.55-1.21-3.86-1.73-.3-.12-.76.16-1.17.56l-1.84-.45.43-.9c-2-.81-4-1.54-5.87-2.42-2.82-1.3-5.6-2.68-8.38-4.07-.81-.41-1.51-.71-2.3.51-.38-1.89-1.78-2.31-3-3-.6-.32-1-.54-1.57-.06a1,1,0,0,1-1-.1,2.17,2.17,0,0,1-.46-1c-.11-.36,0-.93-.27-1.08-3.24-2.18-6.52-4.3-9.8-6.43a2.4,2.4,0,0,0-.44-.16l.28.75-.23.15c-.28-.38-.55-.76-.84-1.14a13.61,13.61,0,0,0-1.34-1.67c-1.27-1.19-2.64-2.28-3.93-3.45-1.58-1.45-3.1-3-4.68-4.41a1.66,1.66,0,0,0-1.09-.29,2,2,0,0,1-2.23-1.86c-.09-.41-.49-.75-.76-1.12h0a8.86,8.86,0,0,0-1-1.84c-1.65-1.88-3.4-3.68-5.08-5.54a19,19,0,0,0-1.35-1.79c-.52-.45-1.25-.66-1.59-1.14a26.38,26.38,0,0,0-1.19-2.45c-.41-.67-.29-1,.4-1.28a2.77,2.77,0,0,1,.69-.16c3.74-.26,7.47-.57,11.21-.75,6.14-.29,12.29-.51,18.43-.74,2.63-.1,5.27-.15,7.9-.23,3.54-.12,7.08-.28,10.62-.36,3.1-.08,6.21-.07,9.32-.12,2.87-.06,5.74-.19,8.61-.21,5.43-.05,10.86,0,16.29-.05,6.72-.07,13.43-.23,20.14-.31,2.75,0,5.5.07,8.25.06,1.8,0,3.59-.18,5.39-.18q11,0,21.93,0c2.82,0,5.65.16,8.48.19,1.07,0,2.15-.21,3.22-.18,2.31.07,4.62.28,6.93.35s4.54,0,6.81,0q7.43.07,14.86.19c1.75,0,3.51,0,5.26.11,5.89.3,11.79.61,17.68,1a7.86,7.86,0,0,1,2.21.77l-5.9,6.17C311.77,293.49,311.9,293.66,312.05,293.83Zm36.59-19.48c-7-.41-14-.76-20.95-1.29-9.9-.74-19.75.12-29.6.75-3.32.21-6.63.41-9.95.57-1.85.09-2.9-1-3-2.92-.13-2.16.94-3.61,2.73-3.84,3.09-.41,6.18-.81,9.26-1.33a13.84,13.84,0,0,0,3.4-1.12,9.21,9.21,0,0,0,5.39-6.61,84.17,84.17,0,0,0,1.79-20.51c-.1-6.39-.45-12.78-.64-19.18,0-1-.4-1.57-1.39-1.73-5.13-.81-10.23-1.9-15.39-2.4a314.85,314.85,0,0,0-50.46-.31h-.12c-2.34.21-2-.08-2,2.18q0,18.24,0,36.48c0,1.08.09,2.16.16,3.24a10.09,10.09,0,0,0,5.64,8.73c3.55,1.88,7.38,2.27,11.27,2.46l2,.12c1.8.12,2.78,1.29,2.74,3.23s-1.24,3.52-2.9,3.47c-4.08-.12-8.16-.29-12.23-.54-9.18-.54-18.35-1.33-27.57-.65-5.5.4-11,.71-16.51,1.08a177.17,177.17,0,0,1-26.57-.63c-10-.82-19.9-.29-29.84.35-5.59.36-11.19.54-16.78.77a3.43,3.43,0,0,1-3.59-2.05,3.62,3.62,0,0,1,3.23-5c3.21-.43,6.47-.56,9.62-1.25,7.18-1.58,11.44-6.26,13-13.37a35.91,35.91,0,0,0,.77-7.38c0-10.6-.13-21.2-.19-31.8a1.49,1.49,0,0,0-1-1.44c-8.76-4.63-18.08-2.78-24.81,4.91-4.64,5.3-7.56,11.54-10,18.07a114.8,114.8,0,0,0-4.73,18,42.31,42.31,0,0,1-4.4,12.64A21,21,0,0,1,90.3,277.06a27.49,27.49,0,0,1-16.18-1.14c-7.06-2.93-12-8-13.88-15.61-.85-3.39,1.12-5.7,4.57-5.48,1.44.1,2.08,1,2.74,2.16a55.13,55.13,0,0,0,4.1,6.43c2.55,3.33,6.17,2.33,8.52.57a12,12,0,0,0,4.5-6.77c1.15-4.45,2.12-9,3.36-13.37,2.27-8.06,5.38-15.76,10.5-22.48,4.57-6,10.15-10.63,17.55-12.74.19,0,.44-.07.56-.2.45-.5,1.15-1,1.19-1.58,0-.4-.78-1.09-1.33-1.26-1.87-.56-3.83-.86-5.69-1.43-8-2.48-15.25-6.28-20.47-13.11A30.45,30.45,0,0,1,84,173a43.53,43.53,0,0,1,.79-11.45,29.06,29.06,0,0,1,11-17.23,39.45,39.45,0,0,1,12.93-6.09c2.51-.72,5.08-1.24,7.63-1.85l0-.36-2.5-.25c.05-.09.08-.26.15-.27,2.11-.35,3.22-1.92,4.4-3.48s2.46-2.89,3.47-4.06a5.68,5.68,0,0,1,0-1.89c.26-.6.77-.57,1.4-.2.25.15.88-.36,1.23-.52-.17-.6-.27-1-.38-1.35.34,0,.76.16,1,0a3.1,3.1,0,0,0,1.07-1c.14-.24,0-.67-.08-1h1.44c1.34-1,2.93-2.22,4.48-3.47.58-.47,1.06-1.08,1.61-1.59a12,12,0,0,1,1.18-1c.25-.19.73-.28.78-.49.59-2.27,3.11-2,4.4-3.4a21.45,21.45,0,0,1,4-3c1.39-.92,2.86-1.72,4.28-2.6s3.08-2,4.64-3c.36-.22.79-.36,1.18-.55,1.17-.58,2.33-1.18,3.5-1.75.39-.19.79-.35,1.19-.51l2.29-.94-.72-1.16c1.53-.38,3.42.85,4.3-1.22.84.59,1.41.59,2-.5l3.54-1.28a.4.4,0,0,0,.21-.27c0-1.69.71-1.05,1.49-.49,1.05.75,2.27.15,2.59-1.31.91.86,1.61.2,2.28-.32a2.81,2.81,0,0,1,1.68-.52,38.33,38.33,0,0,0,5.35-1.14c.24-.06.37-.54.42-.61a6.48,6.48,0,0,0,1.77.21,42.41,42.41,0,0,0,5.37-1.16,21.36,21.36,0,0,0,3.26-1.74c.65-.35,1.07-.28.86.85,2.17-.17,4.25-.32,6.33-.5.83-.07,1.65-.28,2.47-.33,2.82-.19,5.65-.34,8.47-.48a6.2,6.2,0,0,1,1.55.11,2.16,2.16,0,0,0,2.29-.64c.17-.19.6-.14.92-.21-.06.28,0,.65-.19.84-1.81,2.12-3.6,4.27-5.48,6.33-3.59,3.92-7.25,7.78-10.85,11.68s-7.14,7.77-10.72,11.65q-7.39,8-14.8,16c-.31.34-.59.71-1.11,1.35h1.73c6.39-.18,12.79-.5,19.18-.49,3.82,0,7.62.55,11.43.83,16.12,1.2,32.22.24,48.33-.41,1.3,0,2.7-.35,3.5,1.14a4.16,4.16,0,0,1-.42,4.54,3.64,3.64,0,0,1-2.2,1.14c-2.13.37-4.31.4-6.42.82-3.72.75-7.08,2.26-9.52,5.35-1.73,2.18-2.11,4.82-2.3,7.45-.21,2.83-.26,5.67-.25,8.51q0,16,.17,31.92c0,1.06-.29,1.43-1.36,1.59a122.42,122.42,0,0,0-19.76,4.42c-1,.33-1.26,0-1.27-.94-.13-11.88-.31-23.76-.43-35.64,0-4.54-.28-9.05-1.9-13.35-2.14-5.69-6.2-9.09-12.33-9.82-1.39-.16-2.79-.17-4.18-.32-.82-.09-1.61-.32-2.42-.48a5.08,5.08,0,0,0-.94-.14,19.46,19.46,0,0,0-11.71,4,14,14,0,0,0-5.32,9.11,141.41,141.41,0,0,0-1.63,24.15c0,3.28-.07,6.56-.05,9.84,0,1-.31,1.23-1.26,1.17-7-.47-14-.77-21,.16-1.13.16-1-.62-1-1.3q-.09-11.76-.17-23.51c0-1.25,0-2.5,0-3.75l-.49-.11-30,32.47a7.37,7.37,0,0,0,1.4.59c2.86.52,5.72,1.4,8.59,1.42,6,0,11.91-.36,17.86-.63,9.22-.44,18.39-.23,27.38,2.25a47.82,47.82,0,0,1,21.49,12.81,7.45,7.45,0,0,1,.47.7,3.12,3.12,0,0,1-.77,0,69.83,69.83,0,0,0-21.88-2.14c-1,.05-1.28.37-1.26,1.36.25,15.31.42,30.63.74,45.95a9.57,9.57,0,0,0,5,8.47c3.76,2.17,7.87,2.68,12.1,3a39.36,39.36,0,0,0,11.16-.3,19.06,19.06,0,0,0,7.26-3,9.76,9.76,0,0,0,4.17-8.12c.36-10.79.65-21.59,1-32.38.06-2,.08-4,.19-6,.05-.94-.17-1.27-1.2-1.15-7.08.8-14.15,1.55-21.23,2.3a1.15,1.15,0,0,1-.82-.21c.34-.25.66-.55,1-.77,10.49-6.28,21.87-10.12,33.79-12.58a250.26,250.26,0,0,1,46.72-4.78c10.71-.16,21.43.14,32.15.24,1.57,0,1.58,0,1.56-1.55-.19-11.8-.35-23.6-.59-35.39a65,65,0,0,0-.62-9.68c-1.25-7.37-6.65-10.61-12.76-11.71a31.64,31.64,0,0,0-4.77-.39,3.24,3.24,0,0,1-3.33-4.13c.45-2.22,1.15-2.84,3.44-2.75,7.84.31,15.67.61,23.5,1s15.75-.18,23.62-.55c4.07-.19,8.15-.33,12.23-.46,2.4-.08,3.66,1.32,3.42,3.75-.2,2-1.14,2.84-3.12,3.13-2.88.42-5.75.95-8.62,1.49a10.81,10.81,0,0,0-8.83,8.33,33.35,33.35,0,0,0-1.34,9c.19,32,.52,64,.81,96a8.56,8.56,0,0,0,3,6.44,18.37,18.37,0,0,0,10.09,4.34,50.84,50.84,0,0,0,5.38.4c2.12.09,3.31,1.36,3.24,3.59A3,3,0,0,1,348.64,274.35ZM88.2,221.7c.17-4.34-.16-8.7-.06-13,.07-3.2.47-6.39.75-9.58a3.12,3.12,0,0,1,.37-1.14c.35-.68.91-.82,1.45-.26A47.21,47.21,0,0,0,106,208c.1,0,.17.15.42.37L87,229.45c.14-.77.08-1.27.31-1.58C88.67,226,88.12,223.75,88.2,221.7Z"/><path class="18d221e1-9f28-48b6-8898-7e4003a59063" d="M123.43,153.83c4-3,8.78-3.79,13.55-4.2a47.09,47.09,0,0,1,9.17.47,22.85,22.85,0,0,1,4.35,1.37,15.44,15.44,0,0,0-.13-2.1c-.44-2.56-1.65-4.28-4.44-5a40.63,40.63,0,0,0-17.25-.35c-8.62,1.58-14.39,6.64-17.57,14.65-2.17,5.46-2.43,11.22-2,17a23.65,23.65,0,0,0,2.41,9.47,15.91,15.91,0,0,0,5.56,6.13,1.83,1.83,0,0,0-.08-.51c-2.91-4.62-3.5-9.85-3.36-15.06.12-4.43.64-8.91,2.64-13.06A23,23,0,0,1,123.43,153.83Z"/></g></g></svg>