<svg xmlns="http://www.w3.org/2000/svg" viewBox="0 0 1208.41 1114.24"><defs><style>.fcccb708-575f-4bf6-8678-50710ce51284{fill:#fff;}</style></defs><title>Asset 2</title><g id="c0e07a74-36bb-4532-8130-42f65553e545" data-name="Layer 2"><g id="38dee694-bb18-4496-977a-07c5ce39af6d" data-name="Layer 1"><path class="fcccb708-575f-4bf6-8678-50710ce51284" d="M957,973.26c-3.43-5.4-.71-12.29-4.27-17.68a3.93,3.93,0,0,1-.81-2.3c.85-6.51-2.12-12.51-2.33-18.9a80,80,0,0,0-4-23.34c-.31-.93-1-1.93-.86-2.8,1.21-7.71-1.67-15-2.53-22.48-.63-5.34.05-11.43-3.27-16.4-.82-1.91-.4-3.91-.39-5.86,0-8.13-2.51-16-2.79-24-1.5-1-1.32-2.76-1.34-4.09-.12-7.74-3.59-14.77-4.3-22.54-.57-6.29,0-13.25-3.15-19.31a1.76,1.76,0,0,1-.24-1c1-7.29-3.27-14-2.12-21.36a6.31,6.31,0,0,0-1.23-5.17,6.27,6.27,0,0,1-1.52-4.1c.83-6.89-2.09-13.23-2.6-19.93-.42-5.63-.46-11.71-2-16.77-2.94-9.47-3-19.14-4.89-28.58-1-5.25-1.17-10.93-2.67-15.55-3.56-11-2.71-22.45-5.57-33.45-1.47-5.64-2.94-11.9-3-17.56,0-7.15-2.3-13.84-3.15-20.65-.79-6.31.7-13.72-3.81-19.54-.53-.68-.46-1.91-.49-2.88a43.78,43.78,0,0,0-1.71-11.48c-1.52-5.11-1.28-10.83-1.29-16.29-.07-66.66,0-133.32-.14-200,0-4.19,1.43-5,5.19-5q121,.12,242,0c4.69,0,6.21,1.95,6.21,6.15,0,33.4.23,66.8-.23,100.19-.08,5.59.26,11.14.25,16.71q0,306.46,0,612.93c0,6.47-1.29,12.89-.13,19.42.46,2.53-.69,4.53-4.22,4.52q-78.75-.15-157.49,0c-3.23,0-4-1.67-4.36-4.13-1.28-8.28-2.46-16.5-4.47-24.72-1.49-6.08-3.32-12.76-2.64-19.47a15.45,15.45,0,0,0-1.95-9.47c-2.41-4.38-1.39-9.75-1.73-14.6-.6-8.83-3.21-17.28-3.77-26.19-.53-8.43-2.76-17-3.87-25.55-.44-3.36-1.44-6.66-2.18-10C954.59,977.88,955.59,975.57,957,973.26Z"/><path class="fcccb708-575f-4bf6-8678-50710ce51284" d="M576.74,126.54c-.38,4.72-3.94,7.68-5.42,11.61-.79,2.07-1.61,4-1.57,6.15a6.4,6.4,0,0,1-1,3.73c-5.4,8.39-6.79,18.71-12.86,26.79,1.54,6.19-3.7,10.46-4.65,16.18-1,6-5.17,11.5-8.19,17.1-.72,1.34-1.6,2.49-1.34,4.06a7.08,7.08,0,0,1-3.26,7.68c-3,1.93-1.68,5.19-2.39,7.71-2,7.26-7.61,13.26-7.43,21.26a3.14,3.14,0,0,1-.93,2.2c-5.41,4.54-5.78,11.08-7,17.29-.42,2.07-2.8,2.51-3.41,5.05-.89,3.74-3.71,7-2.67,11.3a2.41,2.41,0,0,1-1.08,2c-4.5,2.22-4.09,7.24-5.37,10.82-1.12,3.08-2,6-3.94,8.78-4.66,6.66-5.18,15-8.5,22.29-3,6.45-5.69,13-8.54,19.49-.13.29-.68.53-.64.72,1.1,5.76-3.29,9.74-5.15,14.41-1.49,3.74-1.27,8.22-5.11,11.55-2.46,2.14-3,7.05-3.39,10.82a14.93,14.93,0,0,1-2.83,7,34.86,34.86,0,0,0-5.39,13c-.71,4-4.22,6.63-4.6,11-.52,5.79-3.82,11-6.19,16.17-1.78,3.86.09,9.6-5.77,12.13-2,.85-3.08,5.54-3.2,8.53-.15,3.67-.79,6.86-3.53,9.14-2.3,1.91-1.93,4.65-2.29,6.8-1.15,6.77-7.17,11.9-7.55,17.94-.44,7.2-6.12,11.24-7.14,17.56,0,.13-.32.26-.31.37.81,6.7-5.73,10.4-6.73,16a64.15,64.15,0,0,1-4.61,14.64c-1.45,3.34-4.23,6.33-3.11,10.47a1.45,1.45,0,0,1-.56,1.28c-6,2.54-5.27,8.43-6.18,13.24a12.26,12.26,0,0,1-2.33,5.25c-3,4-3.94,8.64-5,13.38-.7,3.05-2.74,5.88-4.57,8.54-1.27,1.85-2.09,3.35-1.39,5.72a3.7,3.7,0,0,1-1.6,4.62c-3.85,2.57-5.56,7.84-5.56,11.25,0,5.45-2.9,10-5.26,12.73-3.35,3.93.29,7.69-2.13,10.63a39.71,39.71,0,0,0-6.14,9.84c-1.06,2.49-1,4.75-1.19,7.15-.11,1.25.39,2.81-1.78,2.8-1.63,0-3.42-.32-3.34-2.14.12-3.13-1.54-4.67-3.68-6.51-1.05-.89-1.68-3.1-1.51-5,.5-5.74-2.14-10.32-5.56-14.59-.49-.63-1.3-1.32-1.3-2,0-6.16-2.5-11.25-6-16.18-2.06-2.9.09-7-2.07-10.39-4.12-6.54-5.28-14.51-8.89-21.22-3.25-6-3.43-13.13-6.6-18.59-3.59-6.2-2.91-13.82-7.21-19-4-4.84-3-10.68-5.33-15.68a8,8,0,0,0-1.54-2.42,11.49,11.49,0,0,1-3.58-8.68c.11-4.45-2.89-7.81-4.93-11.39-.9-1.58-2.08-2.89-2-4.81.23-6.37-2.94-11.39-6.46-16.25-.57-.8-1.47-1.36-1.5-2.49-.18-5.73-2.54-10.61-5.25-15.6-1.93-3.58,0-8.8-3-12.09-3.77-4.08-4.53-8.9-5.81-13.95a49.37,49.37,0,0,0-5.63-12.5A24.13,24.13,0,0,1,272,411.07a2.34,2.34,0,0,0-.33-1.35c-6.1-6.55-3.63-17.14-10.91-23.17-.47-.38-.37-1.57-.37-2.38,0-5.92-3.51-10.48-5.73-15.57-1.58-3.62-2.25-7.64-3.27-11.49-.16-.63.23-1.65-.1-1.95-7.32-6.49-4.09-17.86-11.44-24.49-1.83-1.65-.35-5.14-1.83-7.92-3.91-7.33-5.2-15.93-8.95-23.19-4-7.64-4-16.42-8.86-23.82-1.94-2.93-3-7.39-4.58-11.12-2.76-6.58-3.52-14.33-6.82-20.09-4.6-8-4.19-18-11-24.79-1.59-1.59-.44-4.35-1-6.63-1.39-5.39-5.76-9.47-5.7-15.62,0-3.05-1.87-6.93-3.74-9.44-5.44-7.3-4.06-17.51-10.89-24-.26-.25-.1-1-.08-1.47.26-5-1.74-9.3-5-12.89-2.94-3.24-.91-7.38-2.5-11-1.37-3.1-2.52-6.16-4.73-8.8-1.56-1.87-1.48-3.43,1.57-3.37.84,0,1.67,0,2.5,0H576.74Z"/><path class="fcccb708-575f-4bf6-8678-50710ce51284" d="M156.26,1114q-75.48,0-151,.1c-4.11,0-5-1-5.23-5.11-.6-12.44,3.58-24.5,2.37-37-.32-3.34,2.61-6.07,3.21-9.76,1.71-10.53,5.15-20.86,4.52-31.66-.33-5.62,1.44-10.73,2.68-15.87.82-3.4.55-7,1.61-10,3.74-10.8-.25-22.4,4.38-33.29,1.92-4.53,1.23-11,2.89-15.68,4.26-12,.33-24.91,5.55-36.48,1.2-2.67.94-5.45,1.07-8.22.08-1.95-.63-4,.57-5.85,3.21-4.89,2.82-10.45,2.25-15.73-.64-6,1.72-11.24,2.73-16.76.72-3.88.61-7.89,1.58-11.57,2.21-8.42,0-17.4,2.32-25.26,2.38-8.09,1.63-16.78,4.84-24.16,3.44-7.9,2.14-15.62,2.66-23.44.23-3.6,1.69-7,2.55-10.34.91-3.57.44-7.36,1.64-10.51,3.92-10.21-.28-21.27,4.28-31.54,2.28-5.14,1-11.74,2.73-17.27,2.44-8,1.15-16,2-23.9.47-4.53,3.09-8.83,3.65-13.37,1.06-8.69,4.43-17.23,3.06-26.05-1.06-6.77,2.45-12.32,3.48-18.49,1.64-9.81,4.73-19.56,3.44-29.5-.9-7,2.45-12.69,3.57-19A157.23,157.23,0,0,0,78.32,560c0-3.17-.45-6.42.17-9.46.35-1.69,0-4.61,3-5s2.84,2.65,4.28,3.89c6.37,5.48,3.57,14.9,9.14,20.65a3.49,3.49,0,0,1,.77,2.23c0,6.09,3.18,10.72,6.71,15.23,2.28,2.9,1.52,6.73,3.07,10,.9,1.91.84,4.45,2.82,5.87a5.56,5.56,0,0,1,2.16,4.7c-1.25,5.18,2,8.75,4.46,12s1.86,7.49,3.93,10.87c4.7,7.65,6.55,16.51,9.94,24.72,2,4.81,2.42,10.89,5.36,14.43,5,6,4,13.78,8.33,19.52,4.55,6,4.33,14,8.68,20.3,2,2.86,1.62,7.85,3.66,11.47a46.71,46.71,0,0,0,3.39,5.63c2.08,2.76,2.64,6.77,3.45,10.34.44,1.93.52,3.77,2.25,5.15a4.35,4.35,0,0,1,1.71,2.84c0,6.57,2.75,11.88,6.91,16.68.18.21.16.63.19,1A30.34,30.34,0,0,0,180,780.25c2,2.27,1.11,5.39,1.57,7.9.9,5,4.3,8.64,5.67,13.39,1.12,3.86,1.67,8.81,5.18,12.05,2.87,2.65.84,6.68,3,10,4.12,6.34,5.61,14.27,8.94,20.87,3.77,7.48,3.41,16.67,9.82,22.84-2.9,4.63,4.9,6.44,2.85,10.89-.55,1.19.94,1,1.35,1.54,1.18,1.52,3.17,3.2,3.12,4.76-.2,6.71,3.85,11.46,6.53,17,1.46,3,1.21,6.86,2.55,10.21.48,1.21.63,2.28,1.8,3.17,2.93,2.22,3.4,5.28,3.49,8.91.1,3.81,2.53,7.61,4.66,10.34,3,3.85,1.51,8.58,4.12,12.14.32.45-.21,1.62.13,1.93,6.1,5.51,4.49,14.41,8.87,20.41,3.28,4.49,3.76,9.58,5.49,14.41.1.28-.17.82,0,.94,6.29,5.08,4.71,13.56,8.53,19.72,2.64,4.27,5.06,8.72,5.07,14,0,.32,0,.78.21.94,7.4,5.91,4.64,16.86,11.45,23-.49,8,6.74,13.7,6.41,21.73-.09,2.33,2,4.42,3.25,6.12,3.82,5.42,4,12.27,7.05,17.44,3.52,5.91,3.51,12.63,6.74,18.3a11.11,11.11,0,0,0,3.21,2.9,4.15,4.15,0,0,1,1.51,4.88c-.63,2-2.57,1-3.86,1Q232.49,1114.08,156.26,1114Z"/><path class="fcccb708-575f-4bf6-8678-50710ce51284" d="M567.83,1114h-150c-6.12,0-5.58.13-4.15-5.68s5.86-10.65,6.24-16c.49-7.17,6.3-11.32,7.34-17.72.31-1.94-.32-5.4.42-5.68,3.72-1.4,3.38-5.34,5.55-7.54.44-.45,1.31-.63,1.18-1.39-1.13-7.07,5.66-11.4,6.4-17.17.89-6.94,7-11.46,7-17.82,0-6.72,6.07-9.54,7.4-15.07.1-.41,1-.86,1-1-2.93-7,5.56-10.1,5.52-16.17,0-.81.72-2,.83-3.18.21-2.28-1.12-4.82,3-6,1.33-.37,3.64-5.62,3.54-7.92-.27-6.23,5.57-9.19,6.4-14.65.21-1.36,1.34-3,1-4.53-.47-2.42.65-4.07,2.18-5.47,2.9-2.66,3.09-6.7,4.45-9.93,1.13-2.71,1.6-5.82,3.5-8.42,2.27-3.11,3.91-6.34,4.07-10.52.16-4.49,4.37-7.48,5.95-11.64a11.49,11.49,0,0,0,.91-3.6c.13-2.67,0-4.69,2.85-7,1.69-1.37,4.37-5.77,3.3-9.67-.41-1.51.58-2,1.2-2.91,3.27-4.81,7-9.53,6.59-15.77-.14-2.35,2.35-2.15,2.74-3.67,1.15-4.46,3.67-8.41,4.42-13,.54-3.32,4.54-5.08,4.65-8.81,0-.47.42-.93.42-1.4-.07-7.16,5.73-11.5,8.36-17.36a9.5,9.5,0,0,0,.48-3.89,9,9,0,0,1,2.27-6.45c2-2.32,4.29-5.69,3.74-9.54-.25-1.81.86-2.95,1.55-4.43,2.09-4.45,6.53-7.84,5.61-13.81-.38-2.47,2.94-4.32,4.14-6.92,1.63-3.52,3.59-6.65,3.07-10.69-.06-.42,0-1.22.17-1.25,4.76-1.13,4.06-6.3,6.51-9.23,1.62-1.93.73-5.86,2.77-8.83,4-5.81,3.82-13.43,8.44-19.49a19.84,19.84,0,0,0,4.05-11.26c0-3,2.43-6.24,4.51-8.77a4.39,4.39,0,0,0,1.17-3.41c-.43-6,4.36-9.69,6.32-14.63.18-.47,1.56-.83,1.52-1-1.75-5.52,2.64-9.14,4.27-13.57,2.24-6.09,5.88-11.78,7.32-18,1.9-8.22,8.68-14.35,8.83-23.3.06-3.22,4.08-5.34,5.1-9.12a56.78,56.78,0,0,1,8.19-18.4c.64-.9-.41-1.52-.37-2.26.16-2.72.21-5.41,3.29-6.91,1.5-.74,3.21-2,1.64-4.29-.08-.11-.11-.43,0-.47,3.73-2.33,1.86-7.07,3.91-9.68,3.37-4.28,6.06-8.61,6-14.09,0-2.19,1.4-3.43,2.31-4.7,3-4.1,4.91-8.36,4.83-13.47,0-.79.15-2.26.38-2.29,4-.54,5-2.91,4.7-6.58-.13-1.43,1.45-.87,2.34-1,1.87-.29,2.37,1.36,2.57,2.44.69,3.77,1,7.76,0,11.37a15,15,0,0,0,.56,11c1.79,3.66,1.88,7.31,1.84,11.11-.06,6,2.58,11.46,3.21,17.37.25,2.35,1,4.9.7,7.22-1.46,10.38,2.39,20.1,3.46,30.16,1.38,12.94,5.18,25.45,5.1,38.79a106.06,106.06,0,0,0,3,24.24c1.28,5.55,3.27,11.22,2.69,17.36a64.13,64.13,0,0,0,1.56,20.34c1.65,7.19.9,15.59,3.62,21.91,4,9.38.58,18.64,3,27.38,1.73,6.34,1.14,12.75,2.86,19A90.87,90.87,0,0,1,688,834.51a18.9,18.9,0,0,0,2,10,6.31,6.31,0,0,1,1,4.28c-1.42,6.56.36,13.54,2.36,18.85,4.83,12.86.39,26.07,3.83,38.56,1.69,6.12,1.38,12.76,4.73,18.45a7.28,7.28,0,0,1,1,3.27c.37,10.18-.08,20.32,1.86,30.49,1.31,6.91,1.86,13.92,3.88,20.79s1,14.06,1.46,21.12c.69,11.44,1.59,22.84,5.43,33.93,1.6,4.62.12,10.25.55,15.37.33,4.08-2.17,8.93,2.77,12,.39.25.18,1.59.13,2.41-.58,9,1.92,17.5,4.22,26.07,2,7.31.43,14.88.72,22.32.06,1.32-1,1.51-2.09,1.51h-154Z"/><path class="fcccb708-575f-4bf6-8678-50710ce51284" d="M993.91,16.21C997,9,1002.17,4.11,1010,2.27c4.34-2.18,8.67-1.72,13,0,13.73,3.57,20.81,16.68,17.5,30.14-1.54,6.25-4.71,12.18-11.45,14.88-1,.69-2.21,1-3.08,1.87l-.46.12H1025c-3.57,3.08.08,5.38.85,8a2.27,2.27,0,0,1,.24.87,10.18,10.18,0,0,0,1.82,3.16c.09.88.19,1.75.28,2.63.59,1.63,1.91,2.81,2.63,4.36,4.16,8.73,7,18.06,11.93,26.45a6.94,6.94,0,0,1,.35,2.43c.83,1.28,1.16,2.77,1.86,4.11,9,18.85,17.77,37.77,28,56,.77.93,1,2.21,2,3,5.28,8.24,10.88,16.23,18,23,6.14,4.6,9.08,4.63,15,.14,8-4.08,13.59-10.91,19.22-17.44a271.25,271.25,0,0,0,25.32-35.47q9.79-15.93,19.28-32c2.2-3.74,4-7.71,6.06-11.55,1.27-2.4,1.92-4.15-1.32-6-2.12-1.22-4.7-3.18-4.71-6.44-.8-1-.82-2.4-1.93-3.18-3.2-11.23,1.84-21.36,14-25.36,7.57-2.49,21,3.77,22.3,12.12,1.46,3.4,1.29,7,1.25,10.56a12.25,12.25,0,0,1-1.28,3.84c-1,5.43-7.11,10.6-14,11.94a5,5,0,0,0-3.13,2.91c-.12,4.85-2.06,9.3-3.07,14-1.16,1-.91,2.45-1,3.78a5,5,0,0,1-.85,3.36c.11,5.2-2.15,9.9-3.18,14.86-1.62,2.17-.73,5-1.84,7.27-.08,1.56-.17,3.13-.25,4.69-1.24,2.62-1.79,5.47-2.69,8.2-.06.62-.13,1.23-.2,1.84-1.2,1-.93,2.45-1,3.78a5.23,5.23,0,0,1-.82,3.38c-.45,7.29-3,14.14-4.48,21.2-1.78,8.15-4.05,16.19-5.54,24.39-.7,3.9-3.38,7.18-3.11,11.29-1.32,1.05-1.11,2.8-1.87,4.11.68,4.06-2.16,7.14-3.08,10.78-1.56,6.15-4.22,12-5.91,18.14-1,3.68-3,4.19-6.37,4.19q-93.22-.14-186.44-.07c-22.16,0-44.33-.1-66.48.08-4.44,0-8.16-.12-9.05-5.45-1.19-7.12-5.53-13.32-6-20.64-.76-1-.83-2.34-1.8-3.19l-5.09-16.91a25.92,25.92,0,0,0-2.84-8.09c-1.23-4.06-2.05-8.31-3.81-12.13-1.2-2.59-1.06-5.13-1.44-7.71a4.22,4.22,0,0,1-.83-2.65c-.15-1.54.38-3.23-1-4.5-.63-4.73-3.67-8.93-3.07-13.93-1.79-2.42,0-5.68-1.94-8.07l-.14-3.73c-1-2.66,0-5.79-2-8.23-1.56-1.76-.55-4-1-5.92a4.94,4.94,0,0,1-.86-3.35c-.05-1.32.2-2.73-.94-3.78-.07-.93-.13-1.85-.19-2.77-1-3,.1-6.4-2-9.13h.06c-.57-5.1-1-10.23-2.86-15.08-.29-4.12-2.3-6.49-6.41-7.79C830,81.08,826.28,75.05,825,67.57c-1-6.14,1.08-11.41,5.79-15.69,2.38-2.16,4.05-5.27,8-4.75a17.3,17.3,0,0,1,11.41,0c6.26.81,12.32,7.27,13.6,15a18.88,18.88,0,0,1-8.67,19.34c-2.77,1.9-1,3.82,0,5.73,7.13,13.36,14.46,26.61,22.7,39.33a4.61,4.61,0,0,1,.35,1.44,5.89,5.89,0,0,0,1.74,2.36c7.25,10.63,14.23,21.46,22.33,31.49,5.32,6.58,10.64,13.24,17.46,18.32,8.62,6.41,14.08,8.57,22.37.74,6.19-5.86,11.8-12.38,14.92-20.59,1.09-3.35,3.52-6.06,4.46-9.48l.5-.45a2.27,2.27,0,0,0,2.74-1.51c6.33-13,13-25.77,19-38.86,7-15.26,13.57-30.75,20.31-46.15a8.39,8.39,0,0,0,.33-1.44,9.89,9.89,0,0,0,2.43-3.44c3.52-6.82,0-9.81-5.68-13.48-8.81-5.73-10.35-15.19-9-25.15C993.32,19.25,992.67,17.3,993.91,16.21Z"/><path class="fcccb708-575f-4bf6-8678-50710ce51284" d="M884.94,255.24c1.86-1.09,3.91-.65,5.88-.65q125.67,0,251.36,0c1.62,0,3.34-.46,4.86.56a4.57,4.57,0,0,1,.8,1.75c0,11.91.58,23.83-.28,35.73-1.68,2.39-4.21,1.63-6.44,1.63q-46.21.08-92.42,0-77.44,0-154.88,0c-8.84,0-8.84,0-8.85-9.08C885,275.22,885,265.23,884.94,255.24Z"/><path class="fcccb708-575f-4bf6-8678-50710ce51284" d="M937,106.3c7.81,13.26,15.32,26.71,24.3,39.24,1.12,1.56.14,3.26.68,4.81l.08-.1c-2.41,2.65-4.23,5.83-7.22,7.94-3.89,3.52-8,6.83-11.62,10.6-5.4,5.59-12.8,5.68-18.13,1.38a99.24,99.24,0,0,1-24.1-28.89c1.07-.8,1.09-2.24,1.94-3.17,3.67-8.35,9.23-15.6,13.81-23.42,1-1.66,1.4-3.53,2.61-5.16,2.57-3.48,5-6.43-.87-10.64-7.92-5.69-7.74-17.33-.58-23.55,8.9-7.73,19.28-5.19,24.71,2.08,5,6.74,4,19.42-5.57,23.89C935.34,103,936.25,104.63,937,106.3Z"/><path class="fcccb708-575f-4bf6-8678-50710ce51284" d="M1070.9,138.18q7.92-13.49,15.85-27c1.36-2.32,2.76-4.61,4.15-6.91.86-1,1.45-2-.21-2.87-7.52-2.17-11.54-11.7-9.34-18.9,3-9.8,11.62-13.46,19.42-11.3,2,.56,5.29-.26,6.23,3a15.84,15.84,0,0,1,3.09,3c4.78,4.43,5.46,13.73,1,18.88-1.7,2-3,4.72-6,5.24-1.31.87-.78,1.92-.3,3,2.1,7.46,7.29,13.22,11,19.77a176.32,176.32,0,0,0,13,20.08,4.08,4.08,0,0,1,.21,5.07c-5.93,8-12,16-20.43,21.62-5.13,3.4-9.63,3.23-14.58-.34-8.08-5.83-14-13.63-20-21.44-1-1.3-2.08-2.51-3.13-3.76C1069.69,143,1069.3,140.57,1070.9,138.18Z"/><path class="fcccb708-575f-4bf6-8678-50710ce51284" d="M884.94,255.24c1.25,1.95,1,4.14,1,6.3,0,9.15.11,18.31-.06,27.46-.07,3.23.93,4.7,4.24,4.27a20.68,20.68,0,0,1,2.49,0q124.1,0,248.18,0c2.06,0,4.36.83,6.18-1a269.4,269.4,0,0,0,0-35.94l0-1.18c2.3-.73,2,.92,2,2.22,0,11.33-.07,22.66,0,34,0,2.72-1.35,3.5-3.59,3.65-1.33.09-2.67.06-4,.06H891.61c-7.91,0-7.9,0-7.9-8,0-9.16-.05-18.32,0-27.48C883.78,258.13,882.74,256.18,884.94,255.24Z"/><path class="fcccb708-575f-4bf6-8678-50710ce51284" d="M935.72,839.47c.41.47,1.2,1,1.17,1.42-.66,9.59,3.71,18.82,2,28.47-1.59-2.44-.33-5.19-.84-7.72-.55-2.75,1.83-6.45-2.52-8.16-.25-.1.52-2.34.51-3.58C936,846.42,935.84,843,935.72,839.47Z"/><path class="fcccb708-575f-4bf6-8678-50710ce51284" d="M954.79,158.19c1.69-3.3,3.21-6.75,7.22-7.94.44,4.41-2.49,7.13-5,10A2.12,2.12,0,0,0,954.79,158.19Z"/><path class="fcccb708-575f-4bf6-8678-50710ce51284" d="M1108,183.47c-2.53,4.11-6.87,5.67-10.45,3.23-1.53-1-5.07.37-4.58-3.37C1097.94,186.28,1103,186.47,1108,183.47Z"/><path class="fcccb708-575f-4bf6-8678-50710ce51284" d="M844.05,91.28c3.42,1.63,2.1,5.11,2.78,7.71.6,2.31.1,4.9.08,7.37C846.14,101.3,843.38,96.61,844.05,91.28Z"/><path class="fcccb708-575f-4bf6-8678-50710ce51284" d="M850.19,47.12H838.78A8.67,8.67,0,0,1,850.19,47.12Z"/><path class="fcccb708-575f-4bf6-8678-50710ce51284" d="M1023,2.3c-4.33-.16-8.66-1.21-13,0C1012.74-.77,1019.45-.75,1023,2.3Z"/><path class="fcccb708-575f-4bf6-8678-50710ce51284" d="M1206.91,69.27c.8-3.8-1.11-7.42-.72-11.2,3.78,3.23,1.51,7.43,1.81,11.22A.69.69,0,0,1,1206.91,69.27Z"/><path class="fcccb708-575f-4bf6-8678-50710ce51284" d="M854,143.28c3.19,2.08,1.78,5.26,1.94,8.07C853.18,149.16,854,146.12,854,143.28Z"/><path class="fcccb708-575f-4bf6-8678-50710ce51284" d="M957,973.26c.12,2.29-1.12,4.6.11,6.87-.8.06-1.79,1.32-1.76,1.1C955.67,978.55,952.87,975.13,957,973.26Z"/><path class="fcccb708-575f-4bf6-8678-50710ce51284" d="M1025.85,57.29c-2.88-2.38-4.94-4.86-.85-8C1022.43,52.27,1026.67,54.51,1025.85,57.29Z"/><path class="fcccb708-575f-4bf6-8678-50710ce51284" d="M846.85,106.37c4.2,2.27,1.33,6.08,2,9.13C847.23,112.66,847,109.54,846.85,106.37Z"/><path class="fcccb708-575f-4bf6-8678-50710ce51284" d="M851.89,131.32c4.19,1.91,1.33,5.48,2,8.23C852.12,137.06,851.86,134.22,851.89,131.32Z"/><path class="fcccb708-575f-4bf6-8678-50710ce51284" d="M866.08,192.27c2.87,2,3.2,4.94,2.84,8.09C868.33,197.54,865.84,195.38,866.08,192.27Z"/><path class="fcccb708-575f-4bf6-8678-50710ce51284" d="M1179.09,130.55c.32-2.5-1.69-5.58,1.84-7.27A8.83,8.83,0,0,1,1179.09,130.55Z"/><path class="fcccb708-575f-4bf6-8678-50710ce51284" d="M1176.15,143.44c.11-3,.18-6,2.69-8.2A13.53,13.53,0,0,1,1176.15,143.44Z"/><path class="fcccb708-575f-4bf6-8678-50710ce51284" d="M1070.9,138.18c0,2.38,0,4.77,0,7.15C1068.64,143,1067.37,140.59,1070.9,138.18Z"/><path class="fcccb708-575f-4bf6-8678-50710ce51284" d="M855.1,87.19c-2.48-1.92-4-3.83,0-5.73C853.9,83.37,855.2,85.28,855.1,87.19Z"/><path class="fcccb708-575f-4bf6-8678-50710ce51284" d="M993.91,16.21c.07,1.69.59,3.59-1.88,4.11C991.84,18.57,991.52,16.77,993.91,16.21Z"/><path class="fcccb708-575f-4bf6-8678-50710ce51284" d="M1174.14,152.44l-.08-4a1.11,1.11,0,0,1,1.81-.19C1175.93,149.9,1176.57,151.81,1174.14,152.44Z"/><path class="fcccb708-575f-4bf6-8678-50710ce51284" d="M1184.11,108.42l-.07-4a1.11,1.11,0,0,1,1.78-.17C1185.93,105.89,1186.62,107.81,1184.11,108.42Z"/><path class="fcccb708-575f-4bf6-8678-50710ce51284" d="M850.86,121.4c0,1.33,0,2.67,0,4-2.47-.62-1.83-2.51-1.72-4.18A1.06,1.06,0,0,1,850.86,121.4Z"/><path class="fcccb708-575f-4bf6-8678-50710ce51284" d="M937,106.3c-.88-1.67-4.32-3.37,0-5C937,103,937,104.63,937,106.3Z"/><path class="fcccb708-575f-4bf6-8678-50710ce51284" d="M1030.82,68.31c-1.47-1.1-3.07-2.11-2.63-4.36C1030.28,64.67,1030.72,66.39,1030.82,68.31Z"/><path class="fcccb708-575f-4bf6-8678-50710ce51284" d="M859,165.28c2.66.41,1.85,2.45,1.92,4.08-1.1.43-1.39-.48-1.86-1.1Z"/><path class="fcccb708-575f-4bf6-8678-50710ce51284" d="M859.05,168.26l1.86,1.1c0,1,0,2-.08,3.07C858.54,171.76,858.9,170,859.05,168.26Z"/><path class="fcccb708-575f-4bf6-8678-50710ce51284" d="M1159.14,213.43c-.06-1.68-.85-3.7,1.87-4.11C1161.07,211,1160.77,212.52,1159.14,213.43Z"/><path class="fcccb708-575f-4bf6-8678-50710ce51284" d="M1006.74,59c.32,1.94-.51,3.07-2.43,3.44C1004.63,60.89,1005,59.4,1006.74,59Z"/><path class="fcccb708-575f-4bf6-8678-50710ce51284" d="M1206.91,69.27l1.09,0c.11,1.48-.09,2.77-1.84,3.18C1206,71.31,1205.83,70.14,1206.91,69.27Z"/><path class="fcccb708-575f-4bf6-8678-50710ce51284" d="M1169.91,71.31c2.14.15,2.1,1.63,1.93,3.18C1170,74.16,1169.66,72.92,1169.91,71.31Z"/><path class="fcccb708-575f-4bf6-8678-50710ce51284" d="M1175.87,148.23l-1.81.18c-.14-1.5-.19-3,1.89-3.13C1175.92,146.27,1175.9,147.25,1175.87,148.23Z"/><path class="fcccb708-575f-4bf6-8678-50710ce51284" d="M850.86,121.4l-1.74-.18c0-1-.06-2-.08-3C851.05,118.49,851.06,119.88,850.86,121.4Z"/><path class="fcccb708-575f-4bf6-8678-50710ce51284" d="M874,217.27c2.15.19,1.93,1.71,1.8,3.19C874.11,220,873.67,218.86,874,217.27Z"/><path class="fcccb708-575f-4bf6-8678-50710ce51284" d="M1185.82,104.21l-1.78.17c-.11-1.48-.16-2.92,1.88-3.1C1185.89,102.26,1185.86,103.23,1185.82,104.21Z"/><path class="fcccb708-575f-4bf6-8678-50710ce51284" d="M902.88,138.11c.11,1.52.22,3-1.94,3.17C900.53,139.58,900.83,138.31,902.88,138.11Z"/><path class="fcccb708-575f-4bf6-8678-50710ce51284" d="M1189,87.32c-.25-2.37.68-3.45,3.13-2.91Z"/><path class="fcccb708-575f-4bf6-8678-50710ce51284" d="M1025.93,49.19c.25-1.92,1.56-2.06,3.08-1.87C1028.43,48.66,1027.59,49.6,1025.93,49.19Z"/><path class="fcccb708-575f-4bf6-8678-50710ce51284" d="M1027.91,61.32c-2-.26-2-1.65-1.82-3.16C1027.4,58.81,1028.39,59.64,1027.91,61.32Z"/><path class="fcccb708-575f-4bf6-8678-50710ce51284" d="M1110.09,77.24a5.14,5.14,0,0,1-3.09-3C1109.06,74.17,1110,75.23,1110.09,77.24Z"/><path class="fcccb708-575f-4bf6-8678-50710ce51284" d="M1090.69,101.42c.76,0,1.74-.18,1.88.88s-.81,1.57-1.67,2Z"/><path class="fcccb708-575f-4bf6-8678-50710ce51284" d="M1074.93,160.31c-1.93-.19-2.1-1.5-2-3C1074,158,1075.47,158.52,1074.93,160.31Z"/><path class="fcccb708-575f-4bf6-8678-50710ce51284" d="M879.89,130.32c-2.95,1-1.64-1.22-1.74-2.36C879.5,128.18,880.26,128.83,879.89,130.32Z"/><path class="fcccb708-575f-4bf6-8678-50710ce51284" d="M1045,101.3a4.36,4.36,0,0,1-1.86-4.11C1044.28,98.31,1045.61,99.35,1045,101.3Z"/><path class="fcccb708-575f-4bf6-8678-50710ce51284" d="M1104.79,104.33c-.76-.49-1.66-1-1.5-2s1.06-.87,1.8-.93Z"/><path class="fcccb708-575f-4bf6-8678-50710ce51284" d="M1147,256.32c1.23,1,1,2.36,1,3.65q0,14.32,0,28.64c0,1.29.27,2.68-1,3.65Z"/></g></g></svg>